<svg xmlns="http://www.w3.org/2000/svg" viewBox="0 0 466.73 309.38"><defs><style>.cls-1{fill:#fbfcfe;}</style></defs><g id="Layer_1" data-name="Layer 1"><path class="cls-1" d="M132.33,293.16a4.58,4.58,0,1,1,0-9.15H443.48a4.58,4.58,0,1,1,0,9.15Z" transform="translate(-54.54 -40.98)"/><path class="cls-1" d="M228.55,350.36a4.58,4.58,0,0,1,0-9.15h118.7a4.58,4.58,0,1,1,0,9.15Z" transform="translate(-54.54 -40.98)"/><path class="cls-1" d="M182.09,321.76a4.58,4.58,0,0,1,0-9.15H393.71a4.58,4.58,0,1,1,0,9.15Z" transform="translate(-54.54 -40.98)"/><path class="cls-1" d="M516.69,167.59H249.79L234.4,155.15l35.14-30.86,38.31,31a4.57,4.57,0,0,0,6-.25l74.23-65,72.68,58.76a4.56,4.56,0,1,0,5.72-7.11L390.84,80.55h0a4.57,4.57,0,0,0-5.86.13l-35.89,31.4-61.62-45a4.56,4.56,0,0,0-5.77,0l-77.85,63.38-24-19.43a4.57,4.57,0,0,0-6,.25l-64.37,56.33H59.11a4.58,4.58,0,0,0,0,9.15h52v0a4.55,4.55,0,0,0,3-1.13l62.94-55.07,68,55a4.55,4.55,0,0,0,3.12,1.23h268.5a4.58,4.58,0,1,0,0-9.15ZM211.09,136.3l73.64-59.94,57.33,41.87L310.6,145.75l-38.32-31h0a4.57,4.57,0,0,0-5.87.12l-39.2,34.43Z" transform="translate(-54.54 -40.98)"/><path class="cls-1" d="M357.57,41.07C357,41,356.36,41,355.82,41c-4.37,0-6.46,1.89-8.86,4.75-2.4-2.86-4.5-4.75-8.86-4.75-.55,0-1.13,0-1.75.09-3.78.37-8.15,3.84-8.68,10.47v2.21c.49,6.35,5.28,14.18,19.29,24,14-9.83,18.79-17.66,19.29-24V51.54C365.72,44.91,361.35,41.44,357.57,41.07Z" transform="translate(-54.54 -40.98)"/></g><g id="Summit"><path class="cls-1" d="M113.41,215.13a21.32,21.32,0,0,0-9.15-2.75c-4.57,0-7.49,2.35-7.49,5.49,0,3.49,3.66,5.43,8.41,7.2,8.69,3.38,11.83,7.44,11.72,12.69-.18,7-6.46,11-13.9,11a21.12,21.12,0,0,1-12.91-4.29l2.4-4.63a17.84,17.84,0,0,0,10.17,3.66c4.4,0,8.23-2.23,8.23-5.6,0-3.95-4.17-5.6-9.66-8-6.51-2.86-10.52-6.12-10.52-12,0-5.26,4.29-10.86,13-10.86a28.27,28.27,0,0,1,11.6,3.09Zm29.44,29.49a10.73,10.73,0,0,1-8.69,4.12c-5.83,0-10.52-4.12-10.52-10.35V222.84h5.72v14.7a6.16,6.16,0,0,0,6.34,6.51,6.58,6.58,0,0,0,6.52-6.46V222.84h5.66v25.1h-3.66Zm17.72-19c.85-1.77,4-3.55,7.08-3.55,3.72,0,6.69,1.55,8.35,4.69a9,9,0,0,1,8-4.69c5.84,0,9.27,4,9.27,9.66v16.24h-5.66V232.45c0-4-2.63-5.6-5.21-5.6a5.22,5.22,0,0,0-5,5.54v15.55h-5.83V232.51c0-4.06-2.57-5.66-5.14-5.66a5.25,5.25,0,0,0-5.21,5.66v15.43h-5.65v-25.1h3.37Zm44.53,0c.85-1.77,4-3.55,7.08-3.55,3.72,0,6.69,1.55,8.35,4.69a9,9,0,0,1,8-4.69c5.83,0,9.26,4,9.26,9.66v16.24h-5.65V232.45c0-4-2.63-5.6-5.21-5.6a5.22,5.22,0,0,0-5,5.54v15.55h-5.83V232.51c0-4.06-2.57-5.66-5.14-5.66a5.25,5.25,0,0,0-5.21,5.66v15.43h-5.66v-25.1h3.38ZM248,210a4.08,4.08,0,0,1,4.06,4.06,4,4,0,0,1-8.06,0A4.1,4.1,0,0,1,248,210Zm-2.74,12.8h5.6v25.1h-5.6Zm22.47,4.52v11.83c0,3.32,2.05,4.41,4.17,4.41a9.42,9.42,0,0,0,2.46-.35l.68,4.52a26.55,26.55,0,0,1-4.63.51c-5.71,0-8.34-3.66-8.34-9.26V227.36h-4.58v-.57l.57-3.95h4v-8.23l5.14-.8h.52v9h7.14v4.52Z" transform="translate(-54.54 -40.98)"/><path class="cls-1" d="M326,230H306.83v17.95h-6V207.81h6V225H326V207.81h6v40.13h-6Zm12.52,5.32c0-7.78,6-13.21,13.49-13.21a13.29,13.29,0,1,1-.12,26.58A13,13,0,0,1,338.5,235.31Zm21.15,0c0-5.55-3.83-8.69-7.78-8.69s-7.66,3.14-7.66,8.69,3.78,8.8,7.72,8.8S359.65,240.85,359.65,235.31Zm28.86-6.86a19.92,19.92,0,0,0-7.83-1.77c-2.11,0-5,.68-5,3,0,2.06,2.75,2.69,5.32,3.26,6.29,1.14,10.17,4.06,10.17,8.17,0,5.2-5.37,7.6-10.8,7.6-4.35,0-8.35-1-10.29-2.23l1.54-4.57c1.49,1.09,5.49,2.29,8.58,2.29,2.11,0,5.66-.57,5.66-2.86,0-2.12-2.52-2.92-5.78-3.6-5.88-1.26-9.66-3.6-9.66-7.83,0-5.15,5.2-7.78,10.24-7.78a26.21,26.21,0,0,1,9.26,1.83Zm14.69,15.6v14.64l-5.14.74h-.51V222.85H401l1.54,4.4c1.71-3.09,5.83-5.15,9.66-5.15,6.8,0,11.95,5.38,11.95,13.26,0,8.06-5.43,13.32-12.24,13.32C408.24,248.68,404.52,246.74,403.2,244.05Zm15.15-8.69c0-5.37-3.54-8.63-7.43-8.63s-7.66,3-7.66,8.63c0,5.38,3.78,8.69,7.66,8.69S418.35,240.8,418.35,235.36Zm15-25.32a4.08,4.08,0,0,1,4.06,4.06,4,4,0,0,1-8.06,0A4.1,4.1,0,0,1,433.33,210Zm-2.75,12.81h5.61v25.09h-5.61Zm33.1,18.23,3,3.6c-3,3-6.64,4-10.52,4a13.29,13.29,0,1,1,0-26.58,13.37,13.37,0,0,1,10.52,4.69l-3.38,3.37a8.75,8.75,0,0,0-6.69-3.37,8.55,8.55,0,0,0,.23,17.09A10,10,0,0,0,463.68,241.08Zm12-4.4c.22,3.6,3.48,7.37,9,7.37a15.69,15.69,0,0,0,7.6-2.28l2.12,3.94c-2.69,2-6.86,3-10.35,3-8.63,0-14.06-6.11-14.06-13.37a12.78,12.78,0,0,1,12.86-13.21c6.86,0,12.75,5.26,12.18,14.58Zm13.72-3.94a6.47,6.47,0,0,0-6.52-6.18,7.13,7.13,0,0,0-6.86,6.18Z" transform="translate(-54.54 -40.98)"/></g></svg>