<svg xmlns="http://www.w3.org/2000/svg" viewBox="0 0 396 263.33"><defs><style>.cls-1{fill:#259fd8;}.cls-2{fill:#13375c;}.cls-3{fill:#fc0001;}</style></defs><g id="Mountain"><polygon class="cls-1" points="0 249.48 0 173 87.21 98.46 114.97 122.48 198.08 56.22 276.12 118.43 316.65 86.65 396 147.96 395.72 249.45 0 249.48"/><polygon class="cls-2" points="0 263.33 0 186.86 87.21 112.31 114.97 136.34 198.08 70.08 276.12 132.28 316.65 100.5 396 161.81 395.72 263.31 0 263.33"/></g><g id="about2"><path class="cls-3" d="M435.71,264.19a35,35,0,1,0-39,0,60.32,60.32,0,0,0-18.76,10.38,25.8,25.8,0,0,0-35.82,0,60.48,60.48,0,0,0-18.77-10.38,35,35,0,1,0-39,0A60.89,60.89,0,0,0,243,321.65s0,.08,0,.12c0,7,4,17.44,23.08,27,13.59,6.78,32.26,11.88,54,14.75a316.36,316.36,0,0,0,79.86,0c21.73-2.87,40.41-8,54-14.75,19.07-9.53,23.07-19.93,23.07-27A60.9,60.9,0,0,0,435.71,264.19Zm-45.3-29A25.79,25.79,0,1,1,416.2,261,25.82,25.82,0,0,1,390.41,235.19Zm-44.1,48.48a16.65,16.65,0,0,1,27.38,0h0A16.67,16.67,0,0,1,360,309.84a16.66,16.66,0,0,1-13.68-26.17ZM278,235.19A25.79,25.79,0,1,1,303.79,261,25.82,25.82,0,0,1,278,235.19Zm38.08,118.46c-18.5-2.81-34.29-7.32-45.91-13.12s-18-12.42-18-18.7c0,0,0,0,0-.06A51.61,51.61,0,0,1,336.69,282a25.82,25.82,0,0,0,6.82,31.06A44,44,0,0,0,316.08,353.65Zm78.66,1.23a307.3,307.3,0,0,1-69.48,0v-1.13a34.74,34.74,0,0,1,69.48,0Zm55.08-14.35c-11.61,5.8-27.41,10.31-45.91,13.12a44,44,0,0,0-27.42-40.59A25.83,25.83,0,0,0,383.3,282a51.61,51.61,0,0,1,84.52,39.77C467.82,328.07,461.43,334.73,449.82,340.53Z" transform="translate(-162 -200.22)"/></g></svg>