<svg xmlns="http://www.w3.org/2000/svg" viewBox="0 0 396 262.67"><defs><style>.cls-1{fill:#259fd8;}.cls-2{fill:#13375c;}.cls-3{fill:#fc0001;}</style></defs><g id="Mountain"><polygon class="cls-1" points="0 248.81 0 172.34 87.21 97.79 114.97 121.82 198.08 55.55 276.12 117.76 316.65 85.98 396 147.29 395.72 248.78 0 248.81"/><polygon class="cls-2" points="0 262.67 0 186.19 87.21 111.65 114.97 135.67 198.08 69.41 276.12 131.62 316.65 99.84 396 161.15 395.72 262.64 0 262.67"/></g><g id="about3"><path class="cls-3" d="M434,294.45l-18.79,18.79a10.44,10.44,0,0,0-.78-.86l-24.26-24.27a3.44,3.44,0,0,0-4.86,4.86l24.26,24.26A5.35,5.35,0,0,1,402,324.8l-13.49-13.48a3.43,3.43,0,0,0-4.85,4.85l13.48,13.49h0a5.35,5.35,0,1,1-7.57,7.56l-13.48-13.48a3.44,3.44,0,0,0-4.86,4.86l13.49,13.48a5.35,5.35,0,1,1-7.57,7.56l-13.48-13.48a3.44,3.44,0,0,0-4.86,4.86l13.48,13.48a5.35,5.35,0,0,1-7.56,7.57L356,353.33a12.11,12.11,0,0,0-1.82-14.75l-.21-.2a12,12,0,0,0-9.74-3.47A12.07,12.07,0,0,0,335.05,324a12.09,12.09,0,0,0-16.49-15.24,11.91,11.91,0,0,0-3.07-5.24,12.08,12.08,0,0,0-17.07,0L297,305l-1-1a8.75,8.75,0,0,1-2.58-6.22v-9a3.42,3.42,0,0,0-1-2.42l-14.67-14.67,4.13-4.12a3.44,3.44,0,0,0-4.86-4.86l-5.52,5.53a2.68,2.68,0,0,1-3.78,0L250,250.52a3.43,3.43,0,1,0-4.85,4.86l17.67,17.67a9.52,9.52,0,0,0,6.75,2.79,9.12,9.12,0,0,0,2.32-.3l14.62,14.63v7.53a15.58,15.58,0,0,0,4.59,11.08l1,1L291,311A12.07,12.07,0,0,0,291,328a12.07,12.07,0,0,0,8.54,3.53h.15v.15a12.05,12.05,0,0,0,12.07,12.07h.15A12.05,12.05,0,0,0,324,356h.16a12,12,0,0,0,3.52,8.69l.21.21a12.08,12.08,0,0,0,17.07,0l6.44-6.45,8.48,8.48a12.21,12.21,0,0,0,20.85-8.84h.22a12.19,12.19,0,0,0,12.2-12.43h.22a12.21,12.21,0,0,0,12.22-12.21c0-.07,0-.14,0-.21h.21a12.19,12.19,0,0,0,12.18-13l20.89-20.89a3.44,3.44,0,0,0-4.86-4.86ZM295.85,323.17a5.2,5.2,0,0,1,0-7.35l7.43-7.43a5.2,5.2,0,0,1,7.35,7.36l-7.42,7.42a5.21,5.21,0,0,1-7.36,0Zm15.9,13.74a5.2,5.2,0,0,1-3.68-8.88l7.42-7.42,4.62-4.62a5.2,5.2,0,1,1,7.35,7.36l-12,12a5.19,5.19,0,0,1-3.68,1.52Zm8.53,10.7a5.21,5.21,0,0,1,0-7.36l8.2-8.2a5.2,5.2,0,0,1,7.36,7.36l-8.2,8.19a5.22,5.22,0,0,1-7.36,0ZM340.06,360a5.2,5.2,0,0,1-7.35,0l-.21-.21a5.21,5.21,0,0,1,0-7.36l8.19-8.19h0l1-1a5.21,5.21,0,0,1,7.36,0l.2.21a5.21,5.21,0,0,1,0,7.36Z" transform="translate(-162 -200.89)"/><path class="cls-3" d="M477.15,265a3.44,3.44,0,0,0-4.86,0l-12.87,12.87a.47.47,0,0,1-.65,0L413.26,234.4a.45.45,0,0,1-.14-.33.42.42,0,0,1,.14-.33l27-27a3.43,3.43,0,0,0-4.85-4.86l-27,27a7.33,7.33,0,0,0-.64,9.64l-12.35,12.11-11.64-6.49a10.22,10.22,0,0,0-5-1.3H345.72l-2.51-2.51A23,23,0,0,0,335,235l-9.16-3.49-4.23-4.23a9.54,9.54,0,0,0-1.43-11.63l-13.78-13.79a3.44,3.44,0,0,0-4.86,4.86l13.78,13.78a2.68,2.68,0,0,1,0,3.78l-28,28a3.44,3.44,0,0,0,4.86,4.86l24.8-24.8,4.53,4.54a3.7,3.7,0,0,0,1.21.78l9.84,3.75a16.31,16.31,0,0,1,5.64,3.61l-.61.55-13.06,13.07A13.72,13.72,0,0,0,343,279l9.89-8.12h10.29l11.77,11.76a3.44,3.44,0,1,0,4.86-4.86l-8.5-8.5a3.39,3.39,0,0,0,.54-1.84,3.43,3.43,0,0,0-3.44-3.43H351.62a3.43,3.43,0,0,0-2.18.78l-10.83,8.91a6.86,6.86,0,0,1-9.2-10.15l13.06-13.06a2.57,2.57,0,0,1,1.83-.76h34.49a3.37,3.37,0,0,1,1.64.43l12.87,7.18a5,5,0,0,0,5.91-.79l13.45-13.2,37,35.38-5.39,5.39a3.44,3.44,0,1,0,4.86,4.86l5.55-5.55a7.36,7.36,0,0,0,9.55-.69l12.88-12.87a3.44,3.44,0,0,0,0-4.86Z" transform="translate(-162 -200.89)"/></g></svg>