<svg xmlns="http://www.w3.org/2000/svg" viewBox="0 0 396 302.4"><defs><style>.cls-1{fill:#259fd8;}.cls-2{fill:#13375c;}.cls-3{fill:#fc0001;}</style></defs><g id="Mountain"><polygon class="cls-1" points="0 288.55 0 212.07 87.21 137.52 114.97 161.55 198.08 95.28 276.12 157.49 316.65 125.72 396 187.03 395.72 288.51 0 288.55"/><polygon class="cls-2" points="0 302.4 0 225.92 87.21 151.38 114.97 175.4 198.08 109.14 276.12 171.35 316.65 139.57 396 200.88 395.72 302.37 0 302.4"/></g><g id="about4"><g id="Page-1"><g id="_002---Warrior-Pose" data-name="002---Warrior-Pose"><path id="Shape" class="cls-3" d="M250.48,391.26a3.9,3.9,0,0,0,3.9,3.9H445.49a3.9,3.9,0,0,0,0-7.8h-26.3c3-13,11.34-48.89,14.48-61.46,4.29-17.12-.16-23-9.84-27.84-5.8-2.89-19.2-5.38-32.95-6.84V247h58.51a19.53,19.53,0,0,0,19.5-19.5,3.91,3.91,0,0,0-3.9-3.9H373.6a49.26,49.26,0,0,0,9.48-27.3A17.67,17.67,0,0,0,374.69,181a15.6,15.6,0,1,0-30,0,17.72,17.72,0,0,0-8.38,15.26,49.35,49.35,0,0,0,9.49,27.3H254.38a3.9,3.9,0,0,0-3.9,3.9A19.52,19.52,0,0,0,270,247h58.5v46.28c-.81,2.59-8.11,22-52.8,62a28.26,28.26,0,0,0-8,32.12H254.38a3.89,3.89,0,0,0-3.9,3.9Zm153.25-36.42,14.12,3.86c-2.73,11.74-5.34,22.93-6.59,28.33a13.77,13.77,0,0,1-10.64-15.5c.49-3.23,1.11-6.81,1.89-10.71C402.92,358.78,403.33,356.78,403.73,354.84Zm16.61-49.78c5.82,2.91,9.34,4.68,5.76,19-1.42,5.69-3.9,16.14-6.47,27.09l-14.28-3.9c2.71-12.43,4.89-21.19,4.92-21.3a3.91,3.91,0,0,0-3.78-4.87H355.78a19.52,19.52,0,0,1-19.5-19.5V245.09a20.81,20.81,0,0,0,7.51-13.74h31.78a20.9,20.9,0,0,0,7.51,13.74v45.42c-5.53-.42-10.89-.66-15.6-.66a3.9,3.9,0,0,0,0,7.8C387.64,297.65,413.83,301.79,420.34,305.06Zm29.05-65.91H388.13a12.75,12.75,0,0,1-4.61-7.8h76.9A11.73,11.73,0,0,1,449.39,239.15Zm-97.51-62.4a7.8,7.8,0,0,1,15.6,0,6.8,6.8,0,0,1-.13,1,29.52,29.52,0,0,0-15.33,0A8.46,8.46,0,0,1,351.88,176.75Zm-7.8,19.5c0-8,8.09-11.7,15.6-11.7s15.6,3.66,15.6,11.7c0,9.36-6.58,27.3-15.6,27.3S344.08,205.61,344.08,196.25ZM270,239.15a11.71,11.71,0,0,1-11-7.8h76.9a12.69,12.69,0,0,1-4.62,7.8Zm59.38,69.13A27.37,27.37,0,0,0,345.85,327a280.77,280.77,0,0,0-41.48,30.94l-8.45-10.85a233.2,233.2,0,0,0,33.44-38.77Zm-48.48,52.79c3.32-3,6.43-5.85,9.36-8.58l8.24,10.59c-10.19,9.08-18.77,17.31-23.4,21.84a20.52,20.52,0,0,1,5.8-23.85Zm79.42-32.22h41.23c-1.46,6.14-4.08,17.48-6.67,30.43-.8,4-1.44,7.71-1.95,11.05a21.52,21.52,0,0,0,4.75,17H283.79c15.89-15.3,55.71-52.2,76.51-58.51Z" transform="translate(-162 -161.16)"/></g></g></g></svg>