<svg xmlns="http://www.w3.org/2000/svg" viewBox="0 0 396 297.3"><defs><style>.cls-1{fill:#259fd8;}.cls-2{fill:#13375c;}.cls-3{fill:#fc0001;}</style></defs><g id="Mountain"><polygon class="cls-1" points="0 283.44 0 206.97 87.21 132.42 114.97 156.45 198.08 90.18 276.12 152.39 316.65 120.61 396 181.92 395.72 283.41 0 283.44"/><polygon class="cls-2" points="0 297.3 0 220.82 87.21 146.28 114.97 170.3 198.08 104.04 276.12 166.25 316.65 134.47 396 195.78 395.72 297.27 0 297.3"/></g><g id="about1"><path class="cls-3" d="M416.28,318.29l-.22.07L371.9,332.6c-1.14-6.19-6.54-12.22-15.59-12.58l-10.26-.42a4.57,4.57,0,0,0-.37,9.14l10.26.41c4.8.19,7,3.17,7.05,5.86a4.49,4.49,0,0,1-.36,1.85c-.07.14-.14.28-.2.42-1,1.68-3.11,2.73-6.13,2.92l-33.76,2a4.57,4.57,0,1,0,.55,9.12l33.76-2c6.15-.37,10.33-3,12.74-6.37l49.16-15.86c5.08-1.35,13.82-2.65,16.16,3.38.2.59-.23,1.16-1.28,1.69l-61,29.34c-10.35,3.74-33.26,5.28-51.7,6.51-8.16.55-15.87,1.06-21.7,1.71A4.8,4.8,0,0,0,298,370l-45.81,18.84V350.46h18.58a4.58,4.58,0,0,0,4.57-4.57,19.78,19.78,0,0,1,6.06-14.18,17.58,17.58,0,0,1,13-5l10.26.41a4.57,4.57,0,1,0,.37-9.13l-10.26-.42a26.7,26.7,0,0,0-19.67,7.6,29,29,0,0,0-8.5,16.2H247.57a4.57,4.57,0,0,0-4.57,4.57v49.8a4.57,4.57,0,0,0,6.3,4.23l51.53-21.18c5.56-.6,12.91-1.09,20.67-1.61,20.14-1.35,43-2.88,54.45-7.13l.4-.16,61.26-29.46.06,0c6.27-3.12,7.38-9,5.77-13.18-3.61-9.31-13.51-12.55-27.16-8.89Z" transform="translate(-162 -166.26)"/><path class="cls-3" d="M475,167a4.59,4.59,0,0,0-4.28-.43l-51.52,21.18c-5.57.6-12.92,1.09-20.68,1.61-20.13,1.35-43,2.87-54.45,7.13l-.4.16-61.26,29.46-.06,0c-6.27,3.12-7.38,9-5.77,13.18,2.64,6.8,8.63,10.36,17,10.36a40,40,0,0,0,10.18-1.47l.21-.07,44.16-14.24c1.14,6.19,6.54,12.22,15.6,12.58L425.3,249A26.69,26.69,0,0,0,445,241.4a29,29,0,0,0,8.5-16.2h19a4.58,4.58,0,0,0,4.57-4.57v-49.8a4.63,4.63,0,0,0-2-3.8Zm-7.12,49H449.27a4.57,4.57,0,0,0-4.57,4.57,19.78,19.78,0,0,1-6.06,14.18,17.62,17.62,0,0,1-13,5.05l-61.62-2.49c-4.8-.2-7-3.18-7.05-5.86a4.66,4.66,0,0,1,.36-1.85l.21-.42c1-1.69,3.1-2.73,6.12-2.92l33.76-2a4.57,4.57,0,1,0-.55-9.12l-33.76,2c-6.15.37-10.33,3-12.74,6.37l-49.16,15.86c-5.08,1.34-13.82,2.65-16.16-3.38-.2-.59.23-1.16,1.28-1.69l61-29.34c10.35-3.74,33.27-5.28,51.7-6.51,8.16-.55,15.87-1.07,21.71-1.71a4.38,4.38,0,0,0,1.23-.32l45.81-18.83v38.41Z" transform="translate(-162 -166.26)"/><path class="cls-3" d="M358.82,313.65a4.39,4.39,0,0,0,2.35,0c9-2.39,28.57-18.3,32.95-34.69,2.13-7.94.38-15-5.07-20.43a20,20,0,0,0-28.25,0,1.09,1.09,0,0,1-1.62,0,20,20,0,0,0-28.24,0c-5.45,5.42-7.2,12.49-5.07,20.43,4.38,16.39,24,32.3,32.95,34.69ZM337.39,265a10.89,10.89,0,0,1,15.34,0,10.19,10.19,0,0,0,14.53,0,10.88,10.88,0,0,1,15.34,0c3.12,3.11,4,6.8,2.69,11.6-3.25,12.14-18.56,25-25.3,27.81-6.73-2.81-22-15.67-25.29-27.81-1.29-4.8-.43-8.49,2.69-11.6Z" transform="translate(-162 -166.26)"/><path class="cls-3" d="M320.74,323.34a4.58,4.58,0,1,0,4.58-4.57h0A4.57,4.57,0,0,0,320.74,323.34Z" transform="translate(-162 -166.26)"/></g></svg>