<?xml version="1.0"?>
<svg xmlns="http://www.w3.org/2000/svg" xmlns:xlink="http://www.w3.org/1999/xlink" xmlns:svgjs="http://svgjs.com/svgjs" version="1.1" width="512" height="512" x="0" y="0" viewBox="0 0 480 480.02259" style="enable-background:new 0 0 512 512" xml:space="preserve" class=""><g><path xmlns="http://www.w3.org/2000/svg" d="m337.609375 403.222656-19.421875 25.894532-54.175781-64v-64.152344c5.125-5.773438 7.96875-13.21875 8-20.941406v-65.375c9.6875-3.519532 16.101562-12.765626 16-23.074219-.003907-13.050781-10.582031-23.628907-23.632813-23.632813h-.367187v-54.886718l106.894531-41.601563c3.074219-1.195313 5.101562-4.15625 5.101562-7.453125 0-3.300781-2.027343-6.261719-5.101562-7.457031l-144-56c-2.464844-.957031-5.242188-.636719-7.421875.863281-2.179687 1.496094-3.480469 3.972656-3.472656 6.617188v142.398437c-5.921875-8.992187-15.96875-14.402344-26.738281-14.398437h-23.335938c-11.480469.011718-22.078125 6.164062-27.78125 16.128906l-22.785156 39.871094h-107.359375c-4.417969 0-8.0000002 3.582031-8.0000002 8v88c0 4.417968 3.5820312 8 8.0000002 8h110.464843l34.261719 13.703124c3.78125 1.519532 7.820313 2.296876 11.898438 2.296876h51.375v53.277343l-38 49.410157-20.34375-20.34375c-1.550781-1.566407-3.6875-2.414063-5.890625-2.34375-2.203125.0625-4.285156 1.03125-5.75 2.679687l-64 72c-2.097656 2.355469-2.613282 5.722656-1.324219 8.597656 1.292969 2.875 4.15625 4.726563 7.308594 4.722657h304c3.03125 0 5.800781-1.710938 7.15625-4.421876 1.355469-2.710937 1.0625-5.953124-.757813-8.378906l-48-64c-1.574218-1.914062-3.921875-3.023437-6.398437-3.023437-2.476563 0-4.824219 1.109375-6.402344 3.023437zm-109.660156-27.199218h24.351562l14.847657 17.550781-11.136719 11.136719-10.34375-10.34375c-3.125-3.125-8.1875-3.125-11.3125 0l-10.34375 10.34375-10.25-10.25zm20.0625-208.058594h-16v-42.46875l16-6.226563zm-16-148.246094 113.925781 44.304688-113.925781 44.304687zm-136 188.304688v72h-16v-72zm-80 0h48v72h-48zm142.679687 86.847656-35.703125-14.28125c-.949219-.375-1.957031-.566406-2.976562-.566406h-8v-72h8c2.863281.003906 5.511719-1.519532 6.945312-4l25.054688-43.9375c2.859375-4.992188 8.175781-8.066407 13.925781-8.0625h23.335938c7.34375 0 13.742187 4.996093 15.523437 12.121093l3.453125 13.8125c.890625 3.5625 4.089844 6.066407 7.761719 6.066407h8.0625l31.617187-.050782c.113282 0 .207032.066406.320313.066406s.207031-.066406.320312-.066406h8.039063c2.023437-.003906 3.964844.800782 5.390625 2.234375 1.519531 1.546875 2.332031 3.648438 2.25 5.816407 0 4.417968-3.582031 8-8 8s-8 3.582031-8 8v72c0 8.835937-7.164063 16-16 16h-75.375c-2.039063.003906-4.058594-.386719-5.945313-1.152344zm81.320313 17.152344c2.703125-.035157 5.394531-.417969 8-1.136719v49.136719h-16v-48zm-36.082031 95.199218 14.402343 14.398438c3.125 3.125 8.1875 3.125 11.3125 0l10.367188-10.285156 10.34375 10.34375c3.125 3.121093 8.1875 3.121093 11.3125 0l15.855469-15.847657 49.238281 58.191407h-99.4375l-37.90625-37.90625zm-98.101563 56.800782 46.527344-52.34375 20 19.957031c.402343.632812.894531 1.203125 1.464843 1.691406.136719.09375.296876.109375.429688.207031l30.449219 30.488282zm241.894531 0-18.910156-22.402344 15.199219-20.261719 32 42.664063zm0 0" fill="#fbfcfe" data-original="#000000" style="" class=""/><path xmlns="http://www.w3.org/2000/svg" d="m32.011719 224.023438h16v16h-16zm0 0" fill="#fbfcfe" data-original="#000000" style="" class=""/></g></svg>
