<svg xmlns="http://www.w3.org/2000/svg" viewBox="0 0 396 279.33"><defs><style>.cls-1{fill:#259fd8;}.cls-2{fill:#13375c;}.cls-3{fill:#fc0001;}</style></defs><g id="Mountain"><polygon class="cls-1" points="0 265.47 0 189 87.21 114.45 114.97 138.48 198.08 72.21 276.12 134.42 316.65 102.64 396 163.95 395.72 265.44 0 265.47"/><polygon class="cls-2" points="0 279.33 0 202.85 87.21 128.31 114.97 152.33 198.08 86.07 276.12 148.28 316.65 116.5 396 177.81 395.72 279.3 0 279.33"/></g><g id="diet"><path class="cls-3" d="M441.6,309H433a18.63,18.63,0,0,0-5.24.78,2.4,2.4,0,0,0-.38.12,18,18,0,0,0-5.67,3.2c.85-9,5.29-22,22.15-31.95a3.9,3.9,0,0,0-4-6.72,51.39,51.39,0,0,0-23.1,25.89c-.21-.67-.43-1.33-.67-2a32.55,32.55,0,0,0-9.36-13.26V219.33a11.7,11.7,0,0,0-11.7-11.7H378.78a11.69,11.69,0,0,0-11-7.8H346.91a23.33,23.33,0,0,0-44,0H282a11.69,11.69,0,0,0-11,7.8H254.7a11.7,11.7,0,0,0-11.7,11.7v187.2a11.7,11.7,0,0,0,11.7,11.7H395.1a11.5,11.5,0,0,0,5.24-1.26,47.9,47.9,0,0,0,10.87,1.26h14.58c28.24,0,51.21-24.49,51.21-54.6V346.75C477,326,461.12,309,441.6,309Zm-32.73-7.84a53.2,53.2,0,0,1,2.18,9.4c-.39-.16-.74-.39-1.13-.52a17.72,17.72,0,0,0-6-1H395.4c-1.07,0-2.12.08-3.17.17-.09,0-.16-.08-.27-.1-12.9-2.59-12.73-17.65-12.24-23a64.76,64.76,0,0,1,7.5-.42h.08a23,23,0,0,1,21.57,15.57Zm-39.63,93.64H266.4V231H271a11.69,11.69,0,0,0,11,7.8h85.8a11.69,11.69,0,0,0,11-7.8h4.62v46.86c-10.07.36-10.74,3.16-11.1,4.77-1.37,8-.67,22.23,8.61,29.73A37.9,37.9,0,0,0,360,346.75v16.88A56.74,56.74,0,0,0,369.24,394.83ZM399,219.33v61a31.54,31.54,0,0,0-7.8-2.13V231a7.8,7.8,0,0,0-7.8-7.8h-3.9v-7.8h15.6A3.91,3.91,0,0,1,399,219.33Zm-117-11.7h23.79a2.7,2.7,0,0,0,.39-.08,3.66,3.66,0,0,0,.72-.14,4.45,4.45,0,0,0,.71-.3,3.76,3.76,0,0,0,1.53-1.53,3.15,3.15,0,0,0,.3-.71c.06-.12.11-.24.16-.37a15.6,15.6,0,0,1,30.56,0c0,.15.11.28.17.42a3.83,3.83,0,0,0,.22.56,5.36,5.36,0,0,0,.84,1.12,3.61,3.61,0,0,0,.76.51,3.06,3.06,0,0,0,1.86.52H367.8a3.91,3.91,0,0,1,3.9,3.9v15.6a3.9,3.9,0,0,1-3.9,3.9H282a3.9,3.9,0,0,1-3.9-3.9v-15.6A3.91,3.91,0,0,1,282,207.63Zm-27.3,202.8a3.9,3.9,0,0,1-3.9-3.9V219.33a3.91,3.91,0,0,1,3.9-3.9h15.6v7.8h-3.9a7.8,7.8,0,0,0-7.8,7.8v163.8a7.8,7.8,0,0,0,7.8,7.8h109a51.66,51.66,0,0,0,9.52,7.8Zm214.5-46.8c0,25.8-19.48,46.8-43.41,46.8H411.21c-23.93,0-43.41-21-43.41-46.8V346.75c0-16.49,12.38-29.92,27.6-29.92H404a9.84,9.84,0,0,1,3.27.59,11.66,11.66,0,0,1,7.33,11.15v3.86a3.9,3.9,0,1,0,7.8,0v-3.87a11.68,11.68,0,0,1,7.28-11.17l.19-.05a10.28,10.28,0,0,1,3.11-.51h8.62c15.22,0,27.6,13.43,27.6,29.92Z" transform="translate(-162 -184.23)"/><path class="cls-3" d="M293.7,250.53H282a7.8,7.8,0,0,0-7.8,7.8V270a7.8,7.8,0,0,0,7.8,7.8h11.7a7.8,7.8,0,0,0,7.8-7.8v-11.7A7.8,7.8,0,0,0,293.7,250.53ZM282,270v-11.7h11.7V270Z" transform="translate(-162 -184.23)"/><path class="cls-3" d="M293.7,285.63H282a7.8,7.8,0,0,0-7.8,7.8v11.7a7.8,7.8,0,0,0,7.8,7.8h11.7a7.8,7.8,0,0,0,7.8-7.8v-11.7A7.8,7.8,0,0,0,293.7,285.63ZM282,305.13v-11.7h11.7v11.7Z" transform="translate(-162 -184.23)"/><path class="cls-3" d="M293.7,320.73H282a7.8,7.8,0,0,0-7.8,7.8v11.7A7.8,7.8,0,0,0,282,348h11.7a7.8,7.8,0,0,0,7.8-7.8v-11.7A7.8,7.8,0,0,0,293.7,320.73ZM282,340.23v-11.7h11.7v11.7Z" transform="translate(-162 -184.23)"/><path class="cls-3" d="M293.7,355.83H282a7.8,7.8,0,0,0-7.8,7.8v11.7a7.8,7.8,0,0,0,7.8,7.8h11.7a7.8,7.8,0,0,0,7.8-7.8v-11.7A7.8,7.8,0,0,0,293.7,355.83ZM282,375.33v-11.7h11.7v11.7Z" transform="translate(-162 -184.23)"/><path class="cls-3" d="M313.2,270h54.6a3.9,3.9,0,1,0,0-7.8H313.2a3.9,3.9,0,1,0,0,7.8Z" transform="translate(-162 -184.23)"/><path class="cls-3" d="M356.1,297.33H313.2a3.9,3.9,0,0,0,0,7.8h42.9a3.9,3.9,0,0,0,0-7.8Z" transform="translate(-162 -184.23)"/><path class="cls-3" d="M348.3,332.43H313.2a3.9,3.9,0,1,0,0,7.8h35.1a3.9,3.9,0,0,0,0-7.8Z" transform="translate(-162 -184.23)"/><path class="cls-3" d="M348.3,367.53H313.2a3.9,3.9,0,1,0,0,7.8h35.1a3.9,3.9,0,0,0,0-7.8Z" transform="translate(-162 -184.23)"/></g></svg>