<svg xmlns="http://www.w3.org/2000/svg" viewBox="0 0 396 285.98"><defs><style>.cls-1{fill:#259fd8;}.cls-2{fill:#13375c;}.cls-3{fill:#fc0001;}</style></defs><g id="Mountain"><polygon class="cls-1" points="0 272.12 0 195.65 87.21 121.1 114.97 145.12 198.08 78.86 276.12 141.07 316.65 109.29 396 170.6 395.72 272.09 0 272.12"/><polygon class="cls-2" points="0 285.98 0 209.5 87.21 134.95 114.97 158.98 198.08 92.72 276.12 154.92 316.65 123.15 396 184.46 395.72 285.95 0 285.98"/></g><g id="healthcare"><g id="healthcare-covid19-coronavirus-hand-hearth"><path class="cls-3" d="M383.59,220.05H371.8v-11.8a3.93,3.93,0,0,0-3.93-3.93H352.14a3.93,3.93,0,0,0-3.93,3.93v11.8h-11.8a3.93,3.93,0,0,0-3.93,3.93V239.7a3.93,3.93,0,0,0,3.93,3.94h11.8v11.79a3.93,3.93,0,0,0,3.93,3.93h15.73a3.93,3.93,0,0,0,3.93-3.93V243.64h11.79a3.93,3.93,0,0,0,3.93-3.94V224A3.93,3.93,0,0,0,383.59,220.05Zm-3.93,15.72H367.87a3.93,3.93,0,0,0-3.94,3.93v11.8h-7.86V239.7a3.93,3.93,0,0,0-3.93-3.93H340.35v-7.86h11.79a3.93,3.93,0,0,0,3.93-3.93v-11.8h7.86V224a3.93,3.93,0,0,0,3.94,3.93h11.79Z" transform="translate(-162 -177.58)"/><path class="cls-3" d="M469,241.12a18.13,18.13,0,0,0,.12-2.08,15.82,15.82,0,0,0-12.5-15.38,16,16,0,0,0-18.48,11.68l-17.3,49.77a6.4,6.4,0,0,0-.75.36l-34.75,20.36a35.45,35.45,0,0,0-17.49,30.51v37a3.93,3.93,0,0,0-3.94,3.94v31.45a3.93,3.93,0,0,0,3.94,3.93h55a3.93,3.93,0,0,0,3.93-3.93V377.31a3.93,3.93,0,0,0-3.93-3.94v-8.65a11.92,11.92,0,0,1,3.93-8.8l26.57-23.63a19.39,19.39,0,0,0,6-9.63l17.06-63.81a15.27,15.27,0,0,0,.55-4.09A15.78,15.78,0,0,0,469,241.12Zm-23.35-3.46a8.3,8.3,0,0,1,9.36-6.29,7.87,7.87,0,0,1,6.25,7.67v.07a16.13,16.13,0,0,0-15.3,12L435,285a16.67,16.67,0,0,0-5.26-1.49ZM419,404.83H371.8V381.24H419Zm49.89-148-17.1,63.84a11.65,11.65,0,0,1-3.54,5.74L421.61,350a19.89,19.89,0,0,0-6.57,14.7v8.65H375.73v-37a27.72,27.72,0,0,1,13.6-23.75l34.72-20.32a7.86,7.86,0,0,1,10.75,2.83l0,0a8.07,8.07,0,0,1,.78,6,7.85,7.85,0,0,1-3.69,4.76l-22.53,13a3.93,3.93,0,0,0,3.93,6.81l22.53-13a15.49,15.49,0,0,0,7.35-9.55,15.73,15.73,0,0,0-1.57-11.91l-.24-.36,12.15-37.46a8.3,8.3,0,0,1,9.36-6.29,7.85,7.85,0,0,1,6.25,7.66A6.81,6.81,0,0,1,468.86,256.81Z" transform="translate(-162 -177.58)"/><path class="cls-3" d="M352.14,373.37v-37a35.44,35.44,0,0,0-17.5-30.51l-34.75-20.4c-.24-.12-.51-.2-.75-.32L282,235.62a16.15,16.15,0,0,0-18.59-12A15.81,15.81,0,0,0,250.87,239a16.11,16.11,0,0,0,.11,2.08,15.8,15.8,0,0,0-8,13.64,17.62,17.62,0,0,0,.51,4.09l17.11,63.77a19.23,19.23,0,0,0,6,9.67l26.54,23.63a11.85,11.85,0,0,1,4,8.8v8.65a3.93,3.93,0,0,0-3.93,3.94v31.45a3.93,3.93,0,0,0,3.93,3.93h55a3.93,3.93,0,0,0,3.93-3.93V377.31A3.93,3.93,0,0,0,352.14,373.37ZM258.73,239a7.86,7.86,0,0,1,6.21-7.67,8.48,8.48,0,0,1,9.51,6.57l15.81,45.56A16.66,16.66,0,0,0,285,285L274.1,251.34a16.31,16.31,0,0,0-15.37-12.23Zm39.63,111-26.58-23.63a11.65,11.65,0,0,1-3.54-5.78l-17.14-63.8a8.32,8.32,0,0,1-.23-2.05,7.84,7.84,0,0,1,6.21-7.66,8.42,8.42,0,0,1,9.47,6.48l12.07,37.27-.23.36a15.74,15.74,0,0,0-1.58,11.91,15.54,15.54,0,0,0,7.36,9.55l22.52,13a3.93,3.93,0,0,0,3.93-6.81l-22.52-13a7.83,7.83,0,0,1-3.7-4.76,8.07,8.07,0,0,1,.79-6,7.86,7.86,0,0,1,10.73-2.91h0l34.75,20.36a27.73,27.73,0,0,1,13.61,23.75v37H305v-8.65A19.76,19.76,0,0,0,298.36,350Zm49.85,54.81H301V381.24h47.18Z" transform="translate(-162 -177.58)"/><path class="cls-3" d="M415.62,189.11a39.29,39.29,0,0,0-55.56,0l-.06.05h0a39.27,39.27,0,0,0-55.55-.06l-.06.06a39.34,39.34,0,0,0,0,55.57l52.84,52.83a3.92,3.92,0,0,0,5.56,0l52.83-52.83A39.34,39.34,0,0,0,415.62,189.11ZM360,289.19l-50.06-50.06a31.46,31.46,0,0,1,22.27-53.68,31.12,31.12,0,0,1,22.22,9.23l2.79,2.79a3.94,3.94,0,0,0,5.56,0l2.8-2.8a31.43,31.43,0,0,1,44.44,0l0,0a31.46,31.46,0,0,1,0,44.45Z" transform="translate(-162 -177.58)"/></g></g></svg>