<svg xmlns="http://www.w3.org/2000/svg" viewBox="0 0 396 258.14"><defs><style>.cls-1{fill:#259fd8;}.cls-2{fill:#13375c;}.cls-3{fill:#fc0001;}</style></defs><g id="Mountain"><polygon class="cls-1" points="0 244.28 0 167.81 87.21 93.26 114.97 117.29 198.08 51.02 276.12 113.23 316.65 81.45 396 142.76 395.72 244.26 0 244.28"/><polygon class="cls-2" points="0 258.14 0 181.66 87.21 107.12 114.97 131.14 198.08 64.88 276.12 127.09 316.65 95.31 396 156.62 395.72 258.11 0 258.14"/></g><g id="help"><path class="cls-3" d="M444.69,360.6a3.43,3.43,0,1,0-4.85,4.84l27.78,27.78L440.81,420,421.1,400.3l-4.85-4.84-10.93-10.93A19.7,19.7,0,0,0,390,378.8l-12.19.86a12.84,12.84,0,0,1-10-3.74L333.4,341.5a4.85,4.85,0,0,1,6.86-6.86l16.15,16.15a2,2,0,0,0,.26.24,3.43,3.43,0,0,0,4.33,0,2.84,2.84,0,0,0,.26-.24,3.42,3.42,0,0,0,0-4.84l-35-35a5.66,5.66,0,0,1,0-8,5.66,5.66,0,0,1,7.59-.36l35.4,35.4a3.43,3.43,0,0,0,4.84,0h0a3.43,3.43,0,0,0,0-4.85l-50-50a5.66,5.66,0,0,1,0-8,5.66,5.66,0,0,1,8,0L382,325.22a3.42,3.42,0,0,0,4.85,0l0,0,0,0a3.43,3.43,0,0,0,0-4.85l-45.15-45.15a5.65,5.65,0,0,1,8.71-7.12l38.95,39,.14.12,4.29,5.61a3.42,3.42,0,0,0,5.44-4.16l-4.57-6a6.65,6.65,0,0,1,11.38-6.87c.08.12,19.95,25.25,19.95,25.25a12.91,12.91,0,0,1,2.53,10.47l-1.72,8.67a19.9,19.9,0,0,0,1.62,12.46,3.44,3.44,0,0,0,3.09,1.93,3.32,3.32,0,0,0,1.49-.35,3.42,3.42,0,0,0,1.58-4.58,13,13,0,0,1-1.05-8.13l1.71-8.67a19.7,19.7,0,0,0-3.88-16.05l-.94-1.19a19.62,19.62,0,0,0,3.91-13.17l-.85-12.1a12.76,12.76,0,0,1,3.69-9.91l37.65-37.64a3.43,3.43,0,0,0,0-4.85l-31.42-31.43a3.43,3.43,0,0,0-4.85,0L401.1,243.93a12.71,12.71,0,0,1-11.48,3.49l-8.62-1.7a19.56,19.56,0,0,0-15.95,3.86l-.14.11-6,5.31-6-5.31-.14-.11a19.55,19.55,0,0,0-16-3.86l-8.62,1.7a12.69,12.69,0,0,1-11.47-3.49l-37.52-37.51a3.42,3.42,0,0,0-4.84,0l-31.43,31.43a3.43,3.43,0,0,0,0,4.85l37.65,37.64a12.74,12.74,0,0,1,3.7,9.91l-.85,12.1a19.64,19.64,0,0,0,5,14.51,19.6,19.6,0,0,0-5,14.5l.85,12.1a12.75,12.75,0,0,1-3.7,9.91L242.89,391a3.43,3.43,0,0,0,0,4.85l31.43,31.43a3.43,3.43,0,0,0,4.84,0l37.52-37.51a12.69,12.69,0,0,1,11.47-3.49l8.62,1.7a19.55,19.55,0,0,0,16-3.86,1.18,1.18,0,0,0,.21-.18l6.85-6.37,3.19,3.19a19.67,19.67,0,0,0,15.32,5.72l12.19-.85a12.85,12.85,0,0,1,10,3.73l37.92,37.92a3.43,3.43,0,0,0,4.84,0l31.65-31.65a3.43,3.43,0,0,0,0-4.85ZM369.37,254.9a12.71,12.71,0,0,1,10.31-2.45l8.61,1.7A19.57,19.57,0,0,0,406,248.78l10.69-10.7,4.85-4.84L441,213.69l26.57,26.58L432.39,275.5a19.58,19.58,0,0,0-5.69,15.23l.85,12.1a12.71,12.71,0,0,1-1.55,7l-14.16-17.91a13.5,13.5,0,0,0-24.35,3.43l-30-30Zm-21,123.93a12.74,12.74,0,0,1-10.27,2.44l-8.62-1.71a19.56,19.56,0,0,0-17.65,5.37l-10.7,10.7-4.85,4.84L276.74,420l-26.58-26.58,35.23-35.23A19.58,19.58,0,0,0,291.08,343l-.85-12.1a12.73,12.73,0,0,1,3.7-9.9l11.37-11.37a3.43,3.43,0,0,0-4.85-4.85L293.24,312a12.73,12.73,0,0,1-3-9.15l.85-12.1a19.58,19.58,0,0,0-5.69-15.23l-15.68-15.68-19.55-19.55,26.58-26.58,19.54,19.55,4.85,4.84,10.7,10.7a19.56,19.56,0,0,0,17.65,5.37l8.62-1.7a12.69,12.69,0,0,1,10.3,2.45l5.3,4.67-1.52,1.33a12.52,12.52,0,0,0-17.68,7.51,12.5,12.5,0,0,0-16.21,18.52l-6.54,6.54a3.43,3.43,0,0,0,4.84,4.85l6.49-6.49,3.23,3.23a12.65,12.65,0,0,0-4.92,3,12.51,12.51,0,0,0,0,17.68l11.34,11.34a11.7,11.7,0,0,0-4.17,19.23l26.38,26.38Z" transform="translate(-162 -205.42)"/></g></svg>