<svg id="Capa_1" data-name="Capa 1" xmlns="http://www.w3.org/2000/svg" xmlns:xlink="http://www.w3.org/1999/xlink" viewBox="0 0 27.02 23.94"><defs><style>.cls-1{fill:url(#linear-gradient);}.cls-2{fill:url(#linear-gradient-2);}.cls-3{fill:url(#linear-gradient-3);}</style><linearGradient id="linear-gradient" x1="3.67" y1="15.77" x2="23.05" y2="15.77" gradientUnits="userSpaceOnUse"><stop offset="0" stop-color="#e3e3e3"/><stop offset="1" stop-color="#fff"/></linearGradient><linearGradient id="linear-gradient-2" x1="0" y1="7.93" x2="27.02" y2="7.93" xlink:href="#linear-gradient"/><linearGradient id="linear-gradient-3" x1="21.17" y1="5.47" x2="23.83" y2="5.47" xlink:href="#linear-gradient"/></defs><path class="cls-1" d="M3.67,24.88a.56.56,0,0,0,.57.6h6.81V19.89S11,19,11.86,19h2.82a.88.88,0,0,1,1,.92l0,5.56h6.67a.7.7,0,0,0,.72-.75V14.41l-9.4-8.35-10,8.35Z" transform="translate(0 -1.54)"/><path class="cls-2" d="M0,13.64s.85,1.56,2.69,0l11-9.34,10.35,9.28c2.14,1.54,2.94,0,2.94,0l-13.29-12Z" transform="translate(0 -1.54)"/><polygon class="cls-3" points="23.83 2.73 21.17 2.73 21.18 5.96 23.83 8.21 23.83 2.73"/></svg>