<svg xmlns="http://www.w3.org/2000/svg" viewBox="0 0 396 291.99"><defs><style>.cls-1{fill:#259fd8;}.cls-2{fill:#13375c;}.cls-3{fill:#fc0001;}</style></defs><g id="Mountain"><polygon class="cls-1" points="0 278.14 0 201.66 87.21 127.12 114.97 151.14 198.08 84.88 276.12 147.09 316.65 115.31 396 176.62 395.72 278.11 0 278.14"/><polygon class="cls-2" points="0 291.99 0 215.52 87.21 140.97 114.97 165 198.08 98.73 276.12 160.94 316.65 129.16 396 190.47 395.72 291.96 0 291.99"/></g><g id="hospice"><g id="outline"><path class="cls-3" d="M474.86,180.31a29.84,29.84,0,0,0-42.22,0L419,193.94l-13.63-13.63a29.86,29.86,0,0,0-51,21.11c0,.07,0,.15,0,.22-.17.07-.33.14-.48.22L251.84,257.17a4.27,4.27,0,0,0-2.23,3.74V422.58a4.25,4.25,0,0,0,4.25,4.26H458.08a4.26,4.26,0,0,0,4.26-4.26V256.66a4.25,4.25,0,0,0-2.35-3.81l-10.3-5.15,25.18-25.17A29.84,29.84,0,0,0,474.86,180.31Zm-21,79V418.33H258.12V263.44l97.71-52.93a29.74,29.74,0,0,0,7.33,12l46.89,46.89,9,9.6,8.94-9.6L443.35,254l.07,0Zm15-42.77L419,266.34l-49.84-49.83a21.34,21.34,0,0,1,30.19-30.18L416,203a4.24,4.24,0,0,0,6,0l16.63-16.63a21.34,21.34,0,0,1,30.19,30.18Z" transform="translate(-162 -171.56)"/><path class="cls-3" d="M379.46,401.18l-30.54-.07h0a2,2,0,0,1-.21.2h30.86Zm13.48,0a8.23,8.23,0,0,0,1.33.11,9.53,9.53,0,0,0,1.32-.1Zm16.1,0-13.45,0h-2.65l-13.48,0-30.54-.07h0l-16.3,0-11.81,0-16.44,0h-.93L266.63,401c0,2.35,1.9,8.87,4.25,8.87H441.07c2.35,0,4.25-6.16,4.25-8.51Zm-3.14-20.85a14.89,14.89,0,0,0-.18-15.06l-16.23-27.05a19.23,19.23,0,0,0-16.42-9.3H351.72V309.84a19.09,19.09,0,0,0-5.89-13.79,21.29,21.29,0,1,0-24.57-1.65,19.14,19.14,0,0,0-7.83,15.44v29.78a18.65,18.65,0,0,0,.5,4.34s0,.05,0,.07a32.66,32.66,0,0,0-3.45,1.56l-.07,0a34,34,0,0,0-7,55.4l.32.29H409a.16.16,0,0,1,0-.07A17,17,0,0,0,405.9,380.39ZM334.7,265.16a12.77,12.77,0,1,1-12.76,12.77A12.76,12.76,0,0,1,334.7,265.16Zm-12.76,74.46V309.84a10.64,10.64,0,1,1,21.27,0v23.4a4.25,4.25,0,0,0,4.25,4.25h25.61a10.68,10.68,0,0,1,9.12,5.17l16.23,27a6.39,6.39,0,0,1,0,6.59,17,17,0,0,0-10.54.73c-.16-.19-.3-.4-.44-.6l-15.11-24.17a4.21,4.21,0,0,0-3.6-2H348.67A33.82,33.82,0,0,0,322.2,342c0-.07,0-.14,0-.21A10.42,10.42,0,0,1,321.94,339.62Zm-1.17,61.44a26,26,0,0,1-15.92-11.29.22.22,0,0,1-.05-.08,25.29,25.29,0,0,1-3.33-7.53h.08a26.3,26.3,0,0,1-.79-6.38c0-.72,0-1.42.09-2.12h-.09a25.45,25.45,0,0,1,3.78-11.38h0a26,26,0,1,1,28,38.79Zm28.15.05h0a33.92,33.92,0,0,0,11.35-25.33v0c0-.11,0-.9,0-1a28.82,28.82,0,0,0-1.05-7.53h0a33.79,33.79,0,0,0-3.5-8.51h10.73l10.64,17,3.22,5.16c.25.39.52.78.81,1.16a17,17,0,0,0-1.59,19.08Zm44,.09a8.47,8.47,0,1,1,2.65,0Z" transform="translate(-162 -171.56)"/></g></g></svg>