<svg xmlns="http://www.w3.org/2000/svg" viewBox="0 0 396 294.5"><defs><style>.cls-1{fill:#259fd8;}.cls-2{fill:#13375c;}.cls-3{fill:#fc0001;}</style></defs><g id="Mountain"><polygon class="cls-1" points="0 280.65 0 204.17 87.21 129.62 114.97 153.65 198.08 87.39 276.12 149.59 316.65 117.82 396 179.13 395.72 280.62 0 280.65"/><polygon class="cls-2" points="0 294.5 0 218.03 87.21 143.48 114.97 167.5 198.08 101.24 276.12 163.45 316.65 131.67 396 192.98 395.72 294.47 0 294.5"/></g><g id="about6"><path class="cls-3" d="M401,263.35H381.35V243.71a7.17,7.17,0,0,0-7.12-7.23H345.87a7.19,7.19,0,0,0-7.18,7.18V263.3H319.1a7.18,7.18,0,0,0-7.22,7.13v28.36a7.17,7.17,0,0,0,7.17,7.17h19.64v19.6a7.18,7.18,0,0,0,7.13,7.22h28.31a7.18,7.18,0,0,0,7.18-7.17h0V306H401a7.16,7.16,0,0,0,7.22-7.12V270.52A7.17,7.17,0,0,0,401,263.35Zm-2.46,33h-22a4.82,4.82,0,0,0-4.82,4.82v22h-23.4v-22a4.81,4.81,0,0,0-4.81-4.82h-22V273h22a4.81,4.81,0,0,0,4.81-4.82V246.11h23.36v22a4.81,4.81,0,0,0,4.81,4.81h22.05Z" transform="translate(-162 -169.06)"/><path class="cls-3" d="M443.8,200.47H404.13V183.52a14,14,0,0,0-13.55-14.46c-.4,0-.79,0-1.19,0H330.65a14,14,0,0,0-14.72,13.26c0,.39,0,.79,0,1.18v16.85H276.25c-15.31,0-33.23,8.72-33.23,33.22V338.32c0,24.5,17.92,33.22,33.23,33.22H443.8c15.31,0,33.22-8.72,33.22-33.22V233.69C477,209.18,459.16,200.47,443.8,200.47ZM325.55,183.52c0-1.4,0-5.15,5.15-5.15h58.69c5.16,0,5.16,3.71,5.16,5.15v16.85h-69Zm141.84,154.8c0,21.28-16.46,23.59-23.59,23.59H276.25c-7.08,0-23.6-2.31-23.6-23.59V233.69c0-21.28,16.47-23.59,23.6-23.59H443.8c7.08,0,23.59,2.31,23.59,23.59V338.32Z" transform="translate(-162 -169.06)"/></g></svg>