<svg xmlns="http://www.w3.org/2000/svg" viewBox="0 0 396 309.06"><defs><style>.cls-1{fill:#259fd8;}.cls-2{fill:#13375c;}.cls-3{fill:#fc0001;}</style></defs><g id="Mountain"><polygon class="cls-1" points="0 295.21 0 218.73 87.21 144.19 114.97 168.21 198.08 101.95 276.12 164.16 316.65 132.38 396 193.69 395.72 295.18 0 295.21"/><polygon class="cls-2" points="0 309.06 0 232.59 87.21 158.04 114.97 182.07 198.08 115.8 276.12 178.01 316.65 146.23 396 207.54 395.72 309.03 0 309.06"/></g><g id="medicine"><path class="cls-3" d="M340.37,306.89h-14.6V292.28a4.87,4.87,0,0,0-9.74,0v14.61H301.42a4.87,4.87,0,0,0,0,9.73H316v14.61a4.87,4.87,0,0,0,9.74,0V316.62h14.6a4.87,4.87,0,1,0,0-9.73Z" transform="translate(-162 -154.5)"/><path class="cls-3" d="M471.78,311.27A38.93,38.93,0,0,0,418.58,297L398.8,308.43V266.15a24.54,24.54,0,0,0-4.87-14.61l-24.34-32.45V205.27a14.64,14.64,0,0,0,9.73-13.77V169.1a14.62,14.62,0,0,0-14.6-14.6H277.08a14.63,14.63,0,0,0-14.61,14.6v22.4a14.65,14.65,0,0,0,9.74,13.77v13.82l-24.34,32.46a24.49,24.49,0,0,0-4.87,14.6v94.29a24.37,24.37,0,0,0,24.34,24.34h78.25a38.9,38.9,0,0,0,52.91,13.77l59-34.08A39,39,0,0,0,471.78,311.27ZM272.21,169.1a4.88,4.88,0,0,1,4.87-4.87h87.64a4.88,4.88,0,0,1,4.87,4.87v22.4a4.88,4.88,0,0,1-4.87,4.87H277.08a4.88,4.88,0,0,1-4.87-4.87V169.1Zm-16.55,88.29L281,223.63a4.88,4.88,0,0,0,1-2.92V206.1h77.9v9.74H316a4.87,4.87,0,1,0,0,9.74h46.25l23.86,31.8a14.86,14.86,0,0,1,2.82,7.15H252.84A14.65,14.65,0,0,1,255.66,257.39Zm11.68,117.66a14.63,14.63,0,0,1-14.6-14.61v-4.92h88.45a39.06,39.06,0,0,0,.24,19.53ZM345,345.83H252.74V274.26H389.06v39.79l-29.51,17A38.75,38.75,0,0,0,345,345.83Zm48.62,44.29a29.21,29.21,0,0,1-29.21-50.6l26.42-15.25,29.22,50.59Zm59-34.08L428.49,370,399.28,319.4l24.16-14A29.22,29.22,0,0,1,452.66,356Z" transform="translate(-162 -154.5)"/></g></svg>