<svg id="Layer_5" data-name="Layer 5" xmlns="http://www.w3.org/2000/svg" xmlns:xlink="http://www.w3.org/1999/xlink" viewBox="0 0 425.32 157.48"><defs><style>.cls-1{fill:url(#linear-gradient);}.cls-2{fill:url(#linear-gradient-2);}.cls-3{fill:url(#linear-gradient-3);}.cls-4{fill:url(#linear-gradient-4);}</style><linearGradient id="linear-gradient" x1="244.1" y1="-33.26" x2="497.31" y2="-33.26" gradientTransform="matrix(1, 0, 0, -1, 0, 255.34)" gradientUnits="userSpaceOnUse"><stop offset="0" stop-color="#e3e3e3"/><stop offset="1" stop-color="#fff"/></linearGradient><linearGradient id="linear-gradient-2" x1="71.99" y1="102.96" x2="252.91" y2="102.96" gradientTransform="matrix(1, 0, 0, -1, 0, 407.12)" xlink:href="#linear-gradient"/><linearGradient id="linear-gradient-3" x1="118.34" y1="124.84" x2="425.09" y2="124.84" gradientTransform="matrix(1, 0, 0, -1, 0, 407.12)" xlink:href="#linear-gradient"/><linearGradient id="linear-gradient-4" x1="300" y1="208.02" x2="351.21" y2="208.02" gradientTransform="matrix(1, 0, 0, 1, 0, 0)" xlink:href="#linear-gradient"/></defs><path class="cls-1" d="M370.71,341.1h126.6L434,288.05,373,237a3.61,3.61,0,0,0-4.63,0l-61,51.1L244.1,341.1Z" transform="translate(-71.99 -183.62)"/><path class="cls-2" d="M159.53,341.1h93.38l-55.65-43.54-35.39-29.51a3.59,3.59,0,0,0-4.65,0L115.76,303.6,72,341.1Z" transform="translate(-71.99 -183.62)"/><path class="cls-3" d="M266.77,341.1H425.09l-94.34-69-61.48-47.87a4.07,4.07,0,0,0-5,0l-71.73,57.4L118.34,341.1Z" transform="translate(-71.99 -183.62)"/><path class="cls-4" d="M339.68,183.74c-.82-.08-1.59-.12-2.32-.12-5.79,0-8.57,2.5-11.75,6.3-3.19-3.8-6-6.3-11.76-6.3-.73,0-1.5,0-2.32.12-5,.49-10.82,5.08-11.53,13.89v2.93c.66,8.42,7,18.82,25.61,31.86,18.58-13,24.94-23.44,25.6-31.86v-2.93C350.5,188.82,344.7,184.23,339.68,183.74Z" transform="translate(-71.99 -183.62)"/></svg>