<svg xmlns="http://www.w3.org/2000/svg" viewBox="0 0 396 219.64"><defs><style>.cls-1{fill:#259fd8;}.cls-2{fill:#13375c;}.cls-3{fill:#fc0001;}</style></defs><g id="Mountain"><polygon class="cls-1" points="0 205.78 0 129.31 87.21 54.76 114.97 78.79 198.08 12.52 276.12 74.73 316.65 42.95 396 104.26 395.72 205.75 0 205.78"/><polygon class="cls-2" points="0 219.64 0 143.16 87.21 68.62 114.97 92.64 198.08 26.38 276.12 88.59 316.65 56.81 396 118.12 395.72 219.61 0 219.64"/></g><g id="nurse"><path class="cls-3" d="M475.13,282.12a191.42,191.42,0,0,0-230.28.48,4.65,4.65,0,0,0-1.44,5.64L278.94,367a4.68,4.68,0,0,0,4.25,2.74,4.73,4.73,0,0,0,1.92-.41,182.79,182.79,0,0,1,149.71-.3,4.67,4.67,0,0,0,6.16-2.34l35.6-78.9A4.66,4.66,0,0,0,475.13,282.12Zm-40.76,76.53a192.27,192.27,0,0,0-148.83.29l-32.09-71.11a182.36,182.36,0,0,1,213.08-.46Z" transform="translate(-162 -243.92)"/><path class="cls-3" d="M392.39,282.71H376V266.27a4.66,4.66,0,0,0-4.66-4.66H348.71a4.65,4.65,0,0,0-4.66,4.66v16.44H327.6a4.66,4.66,0,0,0-4.66,4.66V310a4.66,4.66,0,0,0,4.66,4.66h16.45v16.45a4.66,4.66,0,0,0,4.66,4.66h22.58a4.66,4.66,0,0,0,4.66-4.66V314.61h16.44a4.65,4.65,0,0,0,4.66-4.66V287.37A4.66,4.66,0,0,0,392.39,282.71Zm-4.66,22.58H371.29a4.67,4.67,0,0,0-4.67,4.66V326.4H353.37V310a4.66,4.66,0,0,0-4.66-4.66H332.26V292h16.45a4.66,4.66,0,0,0,4.66-4.66V270.93h13.25v16.44a4.66,4.66,0,0,0,4.67,4.66h16.44Z" transform="translate(-162 -243.92)"/></g></svg>