<svg xmlns="http://www.w3.org/2000/svg" viewBox="0 0 396 295.27"><defs><style>.cls-1{fill:#259fd8;}.cls-2{fill:#13375c;}.cls-3{fill:#fc0001;}</style></defs><g id="Mountain"><polygon class="cls-1" points="0 281.41 0 204.94 87.21 130.39 114.97 154.42 198.08 88.15 276.12 150.36 316.65 118.58 396 179.89 395.72 281.38 0 281.41"/><polygon class="cls-2" points="0 295.27 0 218.79 87.21 144.25 114.97 168.27 198.08 102.01 276.12 164.22 316.65 132.44 396 193.75 395.72 295.24 0 295.27"/></g><g id="pain"><g id="_036---Back-Pain" data-name="036---Back-Pain"><path id="Shape" class="cls-3" d="M473.61,241.33c-7.63-22.85-36.61-32.17-57.77-39a92.51,92.51,0,0,1-18.39-7.06c-10.35-6.91-7.07-21-6.93-21.57a4.38,4.38,0,0,0-4.25-5.44H333.74a4.37,4.37,0,0,0-4.25,5.44c0,.15,3.5,14.6-6.94,21.56a93.16,93.16,0,0,1-18.39,7.07c-21.16,6.8-50.14,16.12-57.77,39-9.17,27.47-.93,124.05,39.41,170a83.29,83.29,0,0,0-.18,15.79A4.36,4.36,0,0,0,290,431h140.1a4.38,4.38,0,0,0,4.36-3.9,85,85,0,0,0-.18-15.79c40.31-45.9,48.55-142.48,39.38-169.95Zm-41.2,158.32a90.52,90.52,0,0,0-2.58-9.46,104.47,104.47,0,0,1-.09-71.42,284.43,284.43,0,0,0,13.36-44.53,4.38,4.38,0,1,0-8.58-1.72,281.49,281.49,0,0,1-12.91,43,113.19,113.19,0,0,0-.08,77.44,90,90,0,0,1,4.37,29.27H294.12A89.76,89.76,0,0,1,298.5,393a113.19,113.19,0,0,0-.08-77.44,280.81,280.81,0,0,1-12.93-43,4.38,4.38,0,0,0-8.58,1.71,285.1,285.1,0,0,0,13.36,44.56,104.56,104.56,0,0,1-.09,71.41,91.19,91.19,0,0,0-2.58,9.46c-35.27-46.9-39.84-134.68-32.9-155.54,6.23-18.65,32.77-27.18,52.15-33.41a92.82,92.82,0,0,0,20.58-8.12,27.45,27.45,0,0,0,11.32-25.51h42.51a27.45,27.45,0,0,0,11.34,25.53,93.31,93.31,0,0,0,20.58,8.12c19.37,6.23,45.92,14.76,52.14,33.4,6.95,20.87,2.36,108.65-32.91,155.55Z" transform="translate(-162 -168.29)"/><path id="Shape-2" data-name="Shape" class="cls-3" d="M373.14,343.41a13.14,13.14,0,0,0-8.76-12.33V260.23a4.38,4.38,0,1,0-8.75,0v70.85a13.11,13.11,0,1,0,17.51,12.33ZM360,347.79a4.38,4.38,0,1,1,4.38-4.38A4.38,4.38,0,0,1,360,347.79Z" transform="translate(-162 -168.29)"/><path id="Shape-3" data-name="Shape" class="cls-3" d="M334.18,378.75a4.37,4.37,0,0,0,3.09-7.47,39.46,39.46,0,0,1,0-55.73,4.38,4.38,0,1,0-6.19-6.19,48.21,48.21,0,0,0,0,68.11A4.39,4.39,0,0,0,334.18,378.75Z" transform="translate(-162 -168.29)"/><path id="Shape-4" data-name="Shape" class="cls-3" d="M382.74,309.36a4.38,4.38,0,0,0,0,6.19,39.46,39.46,0,0,1,0,55.73,4.38,4.38,0,1,0,6.19,6.19,48.23,48.23,0,0,0,0-68.11,4.38,4.38,0,0,0-6.19,0Z" transform="translate(-162 -168.29)"/></g></g></svg>