<?xml version="1.0"?>
<svg xmlns="http://www.w3.org/2000/svg" xmlns:xlink="http://www.w3.org/1999/xlink" xmlns:svgjs="http://svgjs.com/svgjs" version="1.1" width="512" height="512" x="0" y="0" viewBox="0 0 512 512" style="enable-background:new 0 0 512 512" xml:space="preserve" class=""><g><path xmlns="http://www.w3.org/2000/svg" d="M483.431,96.8l26.226-26.23a8,8,0,1,0-11.314-11.312L469.9,87.705a8,8,0,0,0-2.342,5.682c0,.252-.317,25.6-14.486,39.773l-9.313,9.313L431.32,130.032a8,8,0,0,0-11.314,11.314l57.426,57.425-37.174,37.173a8,8,0,0,0,4.628,13.59,20.312,20.312,0,0,1,11.789,34.54,20.424,20.424,0,0,1-28.849,0,20.139,20.139,0,0,1-5.69-11.789,8,8,0,0,0-13.591-4.628l-41.6,41.6L329.289,271.6a8,8,0,0,0-13.591,4.629A20.631,20.631,0,0,1,280.614,288.2a20.744,20.744,0,0,1,0-29.3,20.46,20.46,0,0,1,11.975-5.78,8,8,0,0,0,4.628-13.59L255.086,197.4l93.021-93.021-20.726,65.716a8,8,0,0,0,4.259,9.662c.98.455,24.172,10.972,39.384-4.44,10.116-10.247,23.791-38.375,29.121-49.808,11.058-.8,36.217-4.874,49.709-25.091a8,8,0,0,0-13.309-8.881c-12.33,18.475-41.15,18.166-41.431,18.159a8.049,8.049,0,0,0-7.482,4.718c-4.892,10.881-19.456,41.014-27.994,49.664-4,4.049-9.977,4.02-14.579,3.161L373.2,78a8,8,0,0,0-13.287-8.063l-34.587,34.587L330.579,87.4l30.339-30.343L422.2,42.508a8,8,0,0,0,3.81-2.128l26.719-26.724A8,8,0,1,0,441.417,2.344L416.3,27.464,355.017,42.016a8,8,0,0,0-3.81,2.127L317.857,77.5a8,8,0,0,0-1.991,3.311l-14.674,47.854L238.115,191.74a8,8,0,0,0,0,11.313L276.862,241.8a35.917,35.917,0,0,0-7.561,5.784,36.721,36.721,0,1,0,51.93,51.933,35.885,35.885,0,0,0,5.786-7.561l34.272,34.272a8,8,0,0,0,11.315,0l38.232-38.233a35.61,35.61,0,0,0,5.676,7.393,36.4,36.4,0,0,0,51.477-51.477,35.61,35.61,0,0,0-7.393-5.676L494.4,204.427a8,8,0,0,0,0-11.313l-39.327-39.327,9.314-9.314C479.929,128.931,482.875,105.588,483.431,96.8Z" fill="#005cb9" data-original="#000000" style="" class=""/><path xmlns="http://www.w3.org/2000/svg" d="M279.984,316.134a8,8,0,0,0-13.607,4.765,20.4,20.4,0,1,1-22.427-22.427,8,8,0,0,0,4.766-13.607l-43.64-43.639a8,8,0,0,0-11.314,0l-33.806,33.806a35.549,35.549,0,0,0-5.676-7.393,36.4,36.4,0,0,0-57.6,43.326l-15.888,4.907a7.994,7.994,0,0,0-3.3,1.986l-33.354,33.35a7.973,7.973,0,0,0-2.127,3.809L27.464,416.3,2.344,441.417a8,8,0,1,0,11.312,11.315l26.724-26.72a8,8,0,0,0,2.127-3.809l14.552-61.284,30.349-30.345,21.438-6.621c.447.285.891.574,1.35.839L71.963,363.025a8,8,0,0,0,8.333,13.2l86.991-30.871c.807,4.563.75,10.375-3.214,14.288-8.649,8.538-38.783,23.1-49.664,27.994a8.031,8.031,0,0,0-4.718,7.464c0,.289.317,29.12-18.159,41.448a8,8,0,0,0,8.881,13.309c20.219-13.491,24.293-38.649,25.092-49.708,11.433-5.329,39.561-19.006,49.808-29.121,15.413-15.212,4.9-38.4,4.44-39.384a8,8,0,0,0-9.931-4.168L108.316,349.3l22.217-22.216a8,8,0,0,0-4.627-13.59,20.146,20.146,0,0,1-11.789-5.691,20.4,20.4,0,1,1,28.85-28.85,20.138,20.138,0,0,1,5.689,11.789,8,8,0,0,0,13.591,4.628L199.419,258.2l28.811,28.811a35.5,35.5,0,0,0-7.737,5.872,36.4,36.4,0,1,0,51.477,51.477,35.521,35.521,0,0,0,5.872-7.737l33.437,33.437-28.149,28.15a35.59,35.59,0,0,0-5.676-7.394,36.4,36.4,0,1,0-51.477,51.478,35.571,35.571,0,0,0,7.393,5.675l-32.576,32.576-59.778-59.778A8,8,0,1,0,129.7,432.076l12.229,12.229-8.77,8.769c-14.294,14.292-39.537,14.486-39.773,14.486h-.026a8,8,0,0,0-5.656,2.343l-28.444,28.44a8,8,0,1,0,11.312,11.314L96.8,483.432c8.786-.557,32.128-3.5,47.67-19.043l8.771-8.77,41.893,41.893a8,8,0,0,0,11.314,0l47.256-47.257a8,8,0,0,0-4.629-13.59,20.4,20.4,0,1,1,22.752-22.75,8,8,0,0,0,13.591,4.627l42.829-42.829a8,8,0,0,0,0-11.314Z" fill="#005cb9" data-original="#000000" style="" class=""/></g></svg>
