<svg xmlns="http://www.w3.org/2000/svg" viewBox="0 0 396 305.57"><defs><style>.cls-1{fill:#259fd8;}.cls-2{fill:#13375c;}.cls-3{fill:#fc0001;}</style></defs><g id="Mountain"><polygon class="cls-1" points="0 291.71 0 215.24 87.21 140.69 114.97 164.72 198.08 98.45 276.12 160.66 316.65 128.88 396 190.19 395.72 291.68 0 291.71"/><polygon class="cls-2" points="0 305.57 0 229.09 87.21 154.54 114.97 178.57 198.08 112.31 276.12 174.51 316.65 142.74 396 204.05 395.72 305.54 0 305.57"/></g><g id="about5"><path class="cls-3" d="M443.27,324.61H427.63V309.1a4.41,4.41,0,0,0-4.3-4.51H409.24a4.63,4.63,0,0,0-4.63,4.51v15.51H388.73a4.61,4.61,0,0,0-4.63,4.5v14a4.61,4.61,0,0,0,4.63,4.5h15.88v16a4.63,4.63,0,0,0,4.63,4.5h14a4.41,4.41,0,0,0,4.38-4.43V347.62h15.64a4.4,4.4,0,0,0,4.38-4.42V329.11a4.39,4.39,0,0,0-4.3-4.5Zm-2.63,16H425.25a4.6,4.6,0,0,0-4.62,4.5v16h-9v-16a4.41,4.41,0,0,0-4.3-4.5H391.1v-9h16.14a4.4,4.4,0,0,0,4.38-4.42V311.6h9v15.51a4.6,4.6,0,0,0,4.62,4.5h15.39Z" transform="translate(-162 -157.99)"/><path class="cls-3" d="M417,275.15A60,60,0,0,0,367.8,300.9l-2.67-.84-3.4-9.65c10.5-7.87,13.38-20.16,14.17-26.11,7.06-1.92,13.55-10.22,16.15-21.23,1.4-5.95-.65-11.49-5.1-13.78a8.71,8.71,0,0,0-4-1c.23-1.73.47-3.84.72-6.43.58-6.07.95-12.2.95-13.75,0-1.1,0-2.24.05-3.44.18-9.58.41-21.5-10.15-32.19h0A50.46,50.46,0,0,0,302,174.25l-.83.92c-5.31,5.94-12.59,14.07-12.06,34.89.05,2,2,11.37,4,18.49a8.84,8.84,0,0,0-3.36,1c-4.28,2.31-6.24,7.73-4.88,13.49,2.6,11,9.11,19.33,16.19,21.22.85,5.84,3.81,18,14.05,25.89l-4.48,9.23c-3.2,1-6.81,2-10.54,3-24.08,6.75-57.11,16-57.11,46v31.39c0,7.42,4,15.3,11.09,15.3H417.34a60,60,0,0,0-.3-120ZM306.39,179.84l.85-1A42.43,42.43,0,0,1,337.87,165a42.87,42.87,0,0,1,31.66,12.42c8.49,8.58,8.3,18.44,8.13,27.13,0,1.24,0,2.41,0,3.57,0,.75-.08,2.29-.2,4.25-1.7-6.3-4.07-12.38-7.33-15.94l-.26-.51a3.5,3.5,0,0,0-6.32.11C357.87,208.46,352.28,208,343,207.13c-1.08-.1-2.17-.19-3.28-.27-3.53-.25-4.8,1.81-5.19,2.7-1.14,2.65.45,5.52,3.35,8.91-9.24-1.1-11.59-7.86-13.7-14-1.47-4.24-3.13-9-8-9a16.35,16.35,0,0,0-12.39,5.34c-3.59,3.85-5.61,9.35-6.74,14.73a45,45,0,0,1-1-5.66C295.66,191.84,301.36,185.46,306.39,179.84Zm1.38,81.23a3.53,3.53,0,0,0-3.5-3.36h-.16c-5.13,0-10.54-8.37-12.4-16.25-.72-3,.22-5.08,1.39-5.71s2.74.54,3.28,1.12a4.44,4.44,0,0,0,6.47-4c-.37-5.37,0-20.75,6.13-27.31a9.36,9.36,0,0,1,6.84-3.09,24.55,24.55,0,0,1,1.76,4.31c2.59,7.5,7.43,21.45,28.84,18.4a3.5,3.5,0,0,0,1.87-6,62.69,62.69,0,0,1-4.83-5c8.24.72,16.64,1,23.58-9.94,4.39,8.23,6.67,24.59,7.23,31.09a3.5,3.5,0,0,0,3.49,3.2h.3a3.49,3.49,0,0,0,2.92-2.13c.7-.68,1.75-1.42,2.76-.9,1.28.66,2.21,2.92,1.49,6-1.86,7.88-7.27,16.25-12.4,16.25h-.09a3.56,3.56,0,0,0-1.93.53,3.5,3.5,0,0,0-1.64,2.87C369,264,367.66,278.62,355.73,286l-.06,0c-4.64,2.87-10.43,4.32-17.2,4.32s-12.53-1.48-17.17-4.42c-11.76-7.42-13.34-22.05-13.53-24.9Zm8.52,42.76,4.85-10a40.62,40.62,0,0,0,17.33,3.55,41.48,41.48,0,0,0,17.1-3.37l3.52,10a3.48,3.48,0,0,0,2.17,2.15c.87.3,1.8.6,2.77.91a60.55,60.55,0,0,0-4.23,10.08,28,28,0,0,1-41.61.92,26.31,26.31,0,0,1-6.49-11.64l2.52-.79a3.54,3.54,0,0,0,2.07-1.8Zm-66.29,76V348.47c0-24.71,28.86-32.78,52-39.27l2.93-.81c2.53,10.64,13.95,25.47,33.52,25.47a34.51,34.51,0,0,0,18.95-5.4,60,60,0,0,0,31.53,59.69H254.09C251.86,388.15,250,383.69,250,379.86Zm167,8.29a53,53,0,1,1,53-53A53,53,0,0,1,417,388.15Z" transform="translate(-162 -157.99)"/></g></svg>