<?xml version="1.0"?>
<svg xmlns="http://www.w3.org/2000/svg" xmlns:xlink="http://www.w3.org/1999/xlink" xmlns:svgjs="http://svgjs.com/svgjs" version="1.1" width="512" height="512" x="0" y="0" viewBox="0 0 480 480" style="enable-background:new 0 0 512 512" xml:space="preserve" class=""><g><path xmlns="http://www.w3.org/2000/svg" d="m424 369h-29c-18.196 0-33-14.804-33-33v-20c0-18.196 14.804-33 33-33s33 14.804 33 33v20c0 4.418 3.582 8 8 8s8-3.582 8-8v-20c0-27.019-21.981-49-49-49s-49 21.981-49 49c1.352 12.063-5.132 33.713 13.145 53.35-17.743 1.96-33.013 12.237-41.812 26.841-9.807-16.278-27.651-27.19-48-27.19h-29.333c-18.196 0-33-14.804-33-33v-20c0-18.196 14.804-33 33-33s33 14.804 33 33v20c0 4.418 3.582 8 8 8s8-3.582 8-8v-20c0-18.163-9.942-34.038-24.661-42.501 6.719-4.838 14.82-7.499 23.328-7.499h29.333c27.019 0 49-21.981 49-49v-20c0-24.457-18.012-44.785-41.467-48.42-4.116-24.515-23.946-43.363-48.711-46.197 18.309-19.634 11.841-41.475 13.178-53.384 0-27.019-21.981-49-49-49s-49 21.981-49 49c1.362 12.132-5.162 33.716 13.177 53.383-8.083.939-15.874 3.617-22.828 7.897-3.763 2.316-4.936 7.244-2.62 11.006 2.315 3.763 7.244 4.937 11.006 2.62 6.277-3.864 13.515-5.906 20.931-5.906h58.667c18.939 0 34.796 13.029 38.94 30.794-22.867 4.13-40.273 24.167-40.273 48.206 1.362 12.135-5.16 33.711 13.17 53.376-13.061 1.505-25.082 7.536-34.153 17.135-29.623-4.271-56.017 18.777-56.017 48.489 1.362 12.13-5.164 33.72 13.181 53.387-17.616 2.042-32.766 12.281-41.515 26.803-9.807-16.278-27.651-27.19-48-27.19h-29.666c-18.196 0-33-14.804-33-33v-20c0-18.196 14.804-33 33-33s33 14.804 33 33v20c0 4.418 3.582 8 8 8s8-3.582 8-8v-20c0-18.088-9.859-33.906-24.478-42.395 6.745-4.906 14.898-7.605 23.478-7.605h29c27.019 0 49-21.981 49-49v-20c0-24.337-17.837-44.578-41.123-48.358-4.109-24.644-24.095-43.577-49.019-46.295 18.264-19.627 11.804-41.407 13.142-53.347 0-27.019-21.981-49-49-49s-49 21.981-49 49c1.364 12.114-5.175 33.749 13.218 53.425-27.69 3.361-49.218 26.993-49.218 55.575v47c0 4.418 3.582 8 8 8s8-3.582 8-8v-47c0-22.056 17.944-40 40-40h58.667c18.919 0 34.763 13.001 38.928 30.736-23.026 4-40.595 24.112-40.595 48.264 1.365 12.131-5.172 33.741 13.208 53.416-12.974 1.561-24.889 7.58-33.895 17.132-29.752-4.471-56.313 18.665-56.313 48.452 1.364 12.113-5.175 33.749 13.218 53.425-27.69 3.361-49.218 26.993-49.218 55.575v47c0 4.418 3.582 8 8 8s8-3.582 8-8v-47c0-22.056 17.944-40 40-40h58.667c22.056 0 40 17.944 40 40v47c0 4.418 3.582 8 8 8s8-3.582 8-8v-47c0-22.056 17.944-40 40-40h58.667c22.056 0 40 17.944 40 40v47c0 4.418 3.582 8 8 8s8-3.582 8-8v-47c0-22.056 17.944-40 40-40h58.666c22.056 0 40 17.944 40 40v47c0 4.418 3.582 8 8 8s8-3.582 8-8v-47c0-30.878-25.122-56-56-56zm-217-320c0-18.196 14.804-33 33-33s33 14.804 33 33v20c0 18.196-14.804 33-33 33s-33-14.804-33-33zm77 148c0-18.196 14.804-33 33-33s33 14.804 33 33v20c0 18.196-14.804 33-33 33s-33-14.804-33-33zm-232-148c0-18.196 14.804-33 33-33s33 14.804 33 33v20c0 18.196-14.804 33-33 33s-33-14.804-33-33zm77 148c0-18.196 14.804-33 33-33s33 14.804 33 33v20c0 18.196-14.804 33-33 33s-33-14.804-33-33zm301.782-94.575c18.362-19.643 11.879-41.529 13.218-53.425 0-27.019-21.981-49-49-49s-49 21.981-49 49c1.362 12.159-5.151 33.682 13.136 53.34-6.375.696-12.52 2.47-18.334 5.307-3.971 1.938-5.619 6.727-3.681 10.698 1.938 3.972 6.727 5.621 10.698 3.681 10.994-5.365 13.478-4.026 76.181-4.026 22.056 0 40 17.944 40 40v47c0 4.418 3.582 8 8 8s8-3.582 8-8v-47c0-28.582-21.528-52.214-49.218-55.575zm-68.782-53.425c0-18.196 14.804-33 33-33s33 14.804 33 33v20c0 18.196-14.804 33-33 33s-33-14.804-33-33z" fill="#005cb9" data-original="#000000" style="" class=""/></g></svg>
