<svg xmlns="http://www.w3.org/2000/svg" viewBox="0 0 396 329.34"><defs><style>.cls-1{fill:#259fd8;}.cls-2{fill:#13375c;}.cls-3{fill:#fc0001;}</style></defs><g id="Mountain"><polygon class="cls-1" points="0 315.48 0 239.01 87.21 164.46 114.97 188.49 198.08 122.22 276.12 184.43 316.65 152.65 396 213.96 395.72 315.45 0 315.48"/><polygon class="cls-2" points="0 329.34 0 252.86 87.21 178.31 114.97 202.34 198.08 136.08 276.12 198.28 316.65 166.51 396 227.82 395.72 329.31 0 329.34"/></g><g id="physician"><path class="cls-3" d="M359.9,291.4c-36.28-1.18-45-32.24-46.84-42.27a15.75,15.75,0,0,1-8.82-5.6,17.75,17.75,0,0,1-3.3-12.07,16.66,16.66,0,0,1,3.92-12.94,12.26,12.26,0,0,1,2.94-2.21A63.9,63.9,0,0,1,298.26,180c4.2-30,28.38-32.93,36-33.1a35.44,35.44,0,0,1,12.74-9.4,45,45,0,0,1,28.88-1.61c18.75,4.9,31.26,14.29,37.19,27.91,8.44,19.36,1,41.65-3.22,51.66A12.13,12.13,0,0,1,414.2,218a16.14,16.14,0,0,1,4.49,13.52,17.66,17.66,0,0,1-3.3,12.06,15.76,15.76,0,0,1-8.82,5.61C404.71,259.16,396,290.22,359.9,291.4Zm-45.38-68.66a5.46,5.46,0,0,0-3.89,1.39,9.57,9.57,0,0,0-1.64,7.19,5.49,5.49,0,0,1,0,.81,9.94,9.94,0,0,0,1.68,6.53,9.2,9.2,0,0,0,6.44,3.05,4,4,0,0,1,3.54,3.65c.13,1.5,3.7,36.84,39.29,38,35.39-1.16,39-36.5,39.11-38a4,4,0,0,1,3.53-3.65,9.2,9.2,0,0,0,6.44-3.05,9.92,9.92,0,0,0,1.68-6.56,4.07,4.07,0,0,1,0-.78,9.59,9.59,0,0,0-1.82-7.39,6.13,6.13,0,0,0-4.37-1.14,4,4,0,0,1-4.24-5.87c.15-.28,14.88-28.24,5.42-50-4.91-11.22-15.61-19.06-31.82-23.3a36.88,36.88,0,0,0-23.63,1.21,27.11,27.11,0,0,0-10.83,8.48,4,4,0,0,1-3.57,1.61c-1-.09-25.67-1.68-29.53,25.85h0s-1.11,21.9,11.57,35.18a4,4,0,0,1,.77,4.42,3.81,3.81,0,0,1-3.81,2.38Z" transform="translate(-162 -134.22)"/><path class="cls-3" d="M403.76,222.84a4,4,0,0,1-4-3.85c-.05-1-1.29-25.34-19.43-27.68a61.25,61.25,0,0,1-46.71-13.53c-5.13,3.86-17,15.58-14.67,40.59a4,4,0,0,1-8,.73c-3.33-36.69,20.22-49.42,21.22-49.95a4.05,4.05,0,0,1,4.65.66,53.69,53.69,0,0,0,42.74,13.49,4.57,4.57,0,0,1,1.11,0c20.45,2.13,26.69,24.1,27.14,35.39a4,4,0,0,1-3.86,4.18Z" transform="translate(-162 -134.22)"/><path class="cls-3" d="M473,415.78H247a4,4,0,0,1-4-4V366.92a53.53,53.53,0,0,1,53.49-53.42h7.73a4,4,0,0,1,0,8h-7.73A45.49,45.49,0,0,0,251,366.92v40.81H469V366.92a45.43,45.43,0,0,0-45.38-45.38H415.3a4,4,0,1,1,0-8h8.28A53.49,53.49,0,0,1,477,366.92v44.84A4,4,0,0,1,473,415.78Z" transform="translate(-162 -134.22)"/><path class="cls-3" d="M373.44,415.78a4.05,4.05,0,0,1-4-4.62l16.28-107.73a4,4,0,0,1,4.58-3.37,5.05,5.05,0,0,1,.56.12L419,308.65a4,4,0,0,1,2.69,5,4.73,4.73,0,0,1-.25.62l-11.16,22.4,6.47,7.27a4,4,0,0,1,.41,4.79l-40.27,65.13A4,4,0,0,1,373.44,415.78ZM393,309.22l-12.65,83.72,28.36-45.86L402.44,340a4,4,0,0,1-.6-4.47L412.09,315Z" transform="translate(-162 -134.22)"/><path class="cls-3" d="M346.1,415.78a4,4,0,0,1-3.43-1.91l-40.28-65.12a4,4,0,0,1,.41-4.79l6.47-7.26-11.16-22.41a4,4,0,0,1,1.82-5.38,4.73,4.73,0,0,1,.62-.25l28.09-8.47a4,4,0,0,1,5,2.7,3.65,3.65,0,0,1,.13.55l16.28,107.73a4,4,0,0,1-3.39,4.57A5.46,5.46,0,0,1,346.1,415.78Zm-35.29-68.71,28.37,45.85-12.65-83.7L307.45,315l10.25,20.56a4,4,0,0,1-.6,4.47Z" transform="translate(-162 -134.22)"/><path class="cls-3" d="M389.73,308.05a4,4,0,0,1-3.22-1.63c-6-8.08-7.06-24.09-7.16-25.89a4,4,0,0,1,3.78-4.25,4.07,4.07,0,0,1,4.25,3.78c.24,4.23,1.73,16.36,5.59,21.58a4,4,0,0,1-3.21,6.41Z" transform="translate(-162 -134.22)"/><path class="cls-3" d="M329.81,308.05a4,4,0,0,1-3.22-6.41c3.87-5.23,5.36-17.35,5.6-21.58a4,4,0,0,1,8.05.47c-.11,1.8-1.21,17.81-7.16,25.89A4,4,0,0,1,329.81,308.05Z" transform="translate(-162 -134.22)"/><path class="cls-3" d="M441.07,359.4a4,4,0,0,1-4-3.9c-.75-26.19-10.71-34.43-10.8-34.52a4,4,0,0,1-.7-5.63,4,4,0,0,1,5.57-.77c.53.4,13.1,10.17,14,40.69a4,4,0,0,1-3.9,4.13Z" transform="translate(-162 -134.22)"/><path class="cls-3" d="M441.09,383.15A15.9,15.9,0,1,1,457,367.25h0A15.91,15.91,0,0,1,441.09,383.15Zm0-23.75a7.86,7.86,0,1,0,7.85,7.86h0a7.86,7.86,0,0,0-7.85-7.85Z" transform="translate(-162 -134.22)"/><path class="cls-3" d="M275.86,359.4a4,4,0,0,1-4-3.73c-2.19-30.87,14.82-40.74,15.54-41.14a4,4,0,1,1,4,7c-.61.36-13.27,8.18-11.48,33.57a4,4,0,0,1-3.73,4.3Z" transform="translate(-162 -134.22)"/><path class="cls-3" d="M267.73,391.61a4,4,0,0,1-3.22-1.59,25.16,25.16,0,0,1-4.26-8.63,24.18,24.18,0,0,1,15.8-30.14,22.59,22.59,0,0,1,17.3,2.14A25.81,25.81,0,0,1,305.9,380a4,4,0,0,1-7.94-1.32,17.77,17.77,0,0,0-8.55-18.26A14.5,14.5,0,0,0,278.24,359,16.13,16.13,0,0,0,268,379.24a17,17,0,0,0,2.92,5.91,4,4,0,0,1-3.2,6.46Z" transform="translate(-162 -134.22)"/><path class="cls-3" d="M302,383.36a2.53,2.53,0,0,1-.47,0L297,382.8a4,4,0,0,1,.95-8l4.54.53a4,4,0,0,1-.48,8Z" transform="translate(-162 -134.22)"/><path class="cls-3" d="M267.73,391.65a4,4,0,0,1-1.4-7.8l4.82-1.78a4,4,0,1,1,2.82,7.54l-4.83,1.79A4.23,4.23,0,0,1,267.73,391.65Z" transform="translate(-162 -134.22)"/></g></svg>