<svg xmlns="http://www.w3.org/2000/svg" viewBox="0 0 396 297.3"><defs><style>.cls-1{fill:#259fd8;}.cls-2{fill:#13375c;}.cls-3{fill:#fc0001;}</style></defs><g id="Mountain"><polygon class="cls-1" points="0 283.44 0 206.97 87.21 132.42 114.97 156.45 198.08 90.18 276.12 152.39 316.65 120.61 396 181.92 395.72 283.41 0 283.44"/><polygon class="cls-2" points="0 297.3 0 220.82 87.21 146.28 114.97 170.3 198.08 104.04 276.12 166.25 316.65 134.47 396 195.78 395.72 297.27 0 297.3"/></g><g id="priest"><path class="cls-3" d="M450.81,342c-5.1-1.7-11.68-3.46-18.64-5.33a235,235,0,0,1-29.68-9.26c-.83-4.61-2.11-11.1-3.36-17.41-1.08-5.5-2.13-10.81-2.85-14.75a24.6,24.6,0,0,0,6.62-19.75,213.16,213.16,0,0,1,3.79-26.36c.64-2.15,7.91-26.91,7.91-41.8,0-17-16.94-41-54.6-41s-54.6,24-54.6,41c0,14.9,7.27,39.65,7.91,41.8a213.16,213.16,0,0,1,3.79,26.36,24.57,24.57,0,0,0,6.63,19.75c-.73,3.94-1.77,9.25-2.86,14.75-1.24,6.31-2.52,12.8-3.35,17.41a235.14,235.14,0,0,1-29.69,9.26c-7,1.87-13.53,3.63-18.63,5.33a38.38,38.38,0,0,0-26.2,34.9v19.5a3.91,3.91,0,0,0,3.9,3.9H473.1a3.91,3.91,0,0,0,3.9-3.9v-19.5A38.37,38.37,0,0,0,450.81,342ZM317.87,236a138.37,138.37,0,0,1-4.67-28.72c0-13.8,14.52-33.24,46.8-33.24,31.92,0,46.8,19.84,46.8,33.24A139,139,0,0,1,402.12,236a67.79,67.79,0,0,1-2.34-8.36c-2.38-11.58-9.75-18.33-20.22-18.49-5.15-.08-11.73,0-11.76,0-3.68,0-3.9-7.74-3.9-7.8a3.91,3.91,0,0,0-3.9-3.9h-1a40.89,40.89,0,0,0-39.16,31.76C319.32,231.56,318.61,233.87,317.87,236Zm3.31,12.66A97.35,97.35,0,0,0,327.46,231a33.17,33.17,0,0,1,29-25.6c1,5.32,4.08,11.56,11.36,11.56,0,0,6.51-.08,11.59,0,6.78.1,11.05,4.23,12.7,12.26a95.62,95.62,0,0,0,6.68,19.46,201.28,201.28,0,0,0-3.72,26.78c0,7.34,0,9.94-6.12,16.2l-14.5,6a49.34,49.34,0,0,0-6.56,3.44l-1,.6a7.78,7.78,0,0,1-3.93,1.06H357a7.79,7.79,0,0,1-3.94-1.06l-1-.6a48.44,48.44,0,0,0-6.54-3.43l-14.52-6c-6.12-6.26-6.12-8.86-6.12-16.2A201.28,201.28,0,0,0,321.18,248.68ZM360,318.36c-11.6,0-26-7.25-30.88-9.92.59-3,1.17-5.88,1.64-8.44l11.82,4.89a43.11,43.11,0,0,1,5.54,2.93l1,.61a15.57,15.57,0,0,0,7.87,2.13H363a15.57,15.57,0,0,0,7.87-2.13l1-.61a44.09,44.09,0,0,1,5.56-2.94L389.25,300c.49,2.56,1.05,5.42,1.64,8.44C386,311.11,371.6,318.36,360,318.36Zm10.25,18.29A49.83,49.83,0,0,1,360,337.86a49.25,49.25,0,0,1-10.26-1.21L351,325.17a41.18,41.18,0,0,0,18,0Zm-80.08,55.81H250.8v-15.6a30.29,30.29,0,0,1,20.85-27.5c4.88-1.63,11.35-3.36,18.2-5.2l.32-.08Zm136.13,0H363.9V373h7.8a3.9,3.9,0,1,0,0-7.8h-7.8v-7.8a3.9,3.9,0,1,0-7.8,0v7.8h-7.8a3.9,3.9,0,0,0,0,7.8h7.8v19.5H297.6V342.05l3.9-1.07c5.7-1.62,11.09-3.27,15.6-5,0,0,6.3-2.59,7.8-5.59.59-3.45,1.58-8.55,2.64-13.95a107.17,107.17,0,0,0,15.86,6.69l-1.27,11.45c-1.39-.43-2.76-.85-4.21-1.37a3.9,3.9,0,1,0-2.64,7.34A74.82,74.82,0,0,0,360,345.66a74.82,74.82,0,0,0,24.72-5.11,3.9,3.9,0,1,0-2.64-7.34c-1.45.52-2.82.94-4.21,1.37l-1.27-11.45a107.17,107.17,0,0,0,15.86-6.69c1.06,5.4,2.05,10.5,2.64,13.95h0c2.57,4.34,7.8,5.58,7.8,5.58,4.51,1.73,9.9,3.38,15.6,5l7.8,2.16Zm42.9,0H433.72V345.13c5.51,1.48,10.6,2.89,14.63,4.23a30,30,0,0,1,20.85,27.5Z" transform="translate(-162 -166.26)"/></g></svg>