<svg xmlns="http://www.w3.org/2000/svg" viewBox="0 0 396 289.16"><defs><style>.cls-1{fill:#259fd8;}.cls-2{fill:#13375c;}.cls-3{fill:#fc0001;}</style></defs><g id="Mountain"><polygon class="cls-1" points="0 275.3 0 198.83 87.21 124.28 114.97 148.31 198.08 82.04 276.12 144.25 316.65 112.47 396 173.78 395.72 275.27 0 275.3"/><polygon class="cls-2" points="0 289.16 0 212.68 87.21 138.14 114.97 162.16 198.08 95.9 276.12 158.1 316.65 126.33 396 187.64 395.72 289.13 0 289.16"/></g><g id="Consultation"><path class="cls-3" d="M361.21,234.29l26.37-22a.73.73,0,0,1,.47-.17h35.37a.74.74,0,0,0,.74-.74V175.14a.74.74,0,0,0-.74-.74h-89.1a.74.74,0,0,0-.74.74V211.4a.74.74,0,0,0,.74.74h24.94a.74.74,0,0,1,.74.74v20.84A.74.74,0,0,0,361.21,234.29Zm-20.08-30.44V182.69a.74.74,0,0,1,.74-.74h74a.74.74,0,0,1,.74.74v21.16a.74.74,0,0,1-.74.74H385.32a.69.69,0,0,0-.47.18l-16.09,13.4a.74.74,0,0,1-1.21-.57V205.33a.74.74,0,0,0-.74-.74H341.87A.74.74,0,0,1,341.13,203.85Z" transform="translate(-162 -174.4)"/><path class="cls-3" d="M401.52,339.46V323.18a0,0,0,0,1,0,0l26.73-26.73a11.76,11.76,0,0,0,3.34-7.24,5.05,5.05,0,0,1,.11.78v46.69A11.37,11.37,0,0,1,420.34,348h-30.1a0,0,0,0,1-.05,0v-7.46a0,0,0,0,1,.05,0h10.27A1,1,0,0,0,401.52,339.46Zm-11.28,31.2h19.14a0,0,0,0,1,.05,0l3,30.11a.05.05,0,0,1-.05.05H390.24a0,0,0,0,1-.05-.05v-30.1A0,0,0,0,1,390.24,370.66Zm26.82,0h7.42a.07.07,0,0,1,0,0l3,30.11a.05.05,0,0,1-.05.05h-7.42a0,0,0,0,1,0,0l-3-30.11S417,370.66,417.06,370.66Zm22.2-34V302.77a0,0,0,0,1,.05,0h7.45a0,0,0,0,1,.05,0V344.2a18.91,18.91,0,0,1-18.92,18.91H390.24a0,0,0,0,1-.05,0v-7.46a0,0,0,0,1,.05,0h30.1A18.92,18.92,0,0,0,439.26,336.65Zm-37.74-75.44v-7.07c0-8.15,6.24-15.18,14.38-15.56a15.11,15.11,0,0,1,15.81,15.08v7.07c0,8.14-6.24,15.18-14.38,15.56A15.11,15.11,0,0,1,401.52,261.21Zm-9.75,49.05,25.13-25.13a4.38,4.38,0,0,1,1.56-1,4.24,4.24,0,0,1,4.43,7l-26.7,26.69H356.37a3.85,3.85,0,0,1-3.84-3,3.78,3.78,0,0,1,3.7-4.53h35.54Zm-80.84-56.6a15.12,15.12,0,0,1,15.82-15.08c8.13.38,14.38,7.41,14.38,15.56v5.7c0,9-6.25,16.07-14.38,16.45a15.12,15.12,0,0,1-15.82-15.08ZM326,283.85a22.41,22.41,0,0,0,7.49-1.3,0,0,0,0,1,.06,0v4h0c-.94,1.45-3.54,4.81-7.55,4.81s-6.6-3.35-7.54-4.8a0,0,0,0,1,0,0v-4a0,0,0,0,1,.06-.05A22.41,22.41,0,0,0,326,283.85Zm-34,19.87a7.58,7.58,0,0,1,5.48-7.26L313.06,292s0,0,0,0c2.2,2.85,6.45,6.91,12.93,6.91S336.77,294.89,339,292c0,0,0,0,.05,0l15.52,4.44a7.52,7.52,0,0,1,5.3,6.21,0,0,0,0,1-.05.05h-2.5a12.52,12.52,0,0,0-11.14,6.52,10.21,10.21,0,0,0-.56,8.52,0,0,0,0,1,0,.06H292.11a0,0,0,0,1-.05-.05ZM277,325.37H393.92a0,0,0,0,1,.05.05v7.46a0,0,0,0,1-.05,0H277a0,0,0,0,1,0,0v-7.46A0,0,0,0,1,277,325.37Zm88.21,75.49H301.94m-17.43-44.75V348m150.61,52.8-3-30.48s0,0,0,0a26.42,26.42,0,0,0,22.25-26.05V299a3.82,3.82,0,0,0-3.81-3.81H439.31a0,0,0,0,1-.05,0V290a13.59,13.59,0,0,0-7.3-12.07s0,0,0-.07a22.56,22.56,0,0,0,7.31-16.61v-7.55A22.67,22.67,0,0,0,415.77,231C403.5,231.48,394,242,394,254.26v6.95a22.65,22.65,0,0,0,14.85,21.23,0,0,0,0,1,0,.07l-20.2,20.22H367.5a0,0,0,0,1,0,0,15.15,15.15,0,0,0-10.86-13.5l-15.44-4.4s0,0,0,0v-6.68a.05.05,0,0,1,0,0,22.6,22.6,0,0,0,7.52-16.82v-6.95c0-12.28-9.52-22.78-21.8-23.23a22.67,22.67,0,0,0-23.49,22.63v7.55A22.56,22.56,0,0,0,310.92,278s0,0,0,0v6.68s0,0,0,0l-15.44,4.42a15.14,15.14,0,0,0-10.95,14.51v14a0,0,0,0,1,0,.05h-14a1,1,0,0,0-1,1v20.62a1,1,0,0,0,1,1h6.49a0,0,0,0,1,0,.05v60.3a0,0,0,0,1,0,.05H244.09a1.08,1.08,0,0,0-1.09,1.08v5.37a1.1,1.1,0,0,0,1.1,1.1h232a.91.91,0,0,0,.91-.91v-5.61a1,1,0,0,0-1-1H435.17A0,0,0,0,1,435.12,400.82Zm-52.48-45.25v45.24a0,0,0,0,1,0,.05h-98a0,0,0,0,1-.05-.05v-60.3a0,0,0,0,1,.05-.05h98a0,0,0,0,1,0,.05V348" transform="translate(-162 -174.4)"/></g></svg>